<mxfile host="app.diagrams.net" agent="Mozilla/5.0 (Windows NT 10.0; Win64; x64) AppleWebKit/537.36 (KHTML, like Gecko) Chrome/139.0.0.0 Safari/537.36" version="28.1.1">
  <diagram name="Page-1" id="TOdWRQcOsEo4pnOOtKDx">
    <mxGraphModel dx="872" dy="1531" grid="1" gridSize="10" guides="1" tooltips="1" connect="1" arrows="1" fold="1" page="1" pageScale="1" pageWidth="850" pageHeight="1100" math="0" shadow="0">
      <root>
        <mxCell id="0" />
        <mxCell id="1" parent="0" />
        <mxCell id="Z9WURSwbNC6hcUpUr-SR-1" value="" style="rounded=0;whiteSpace=wrap;html=1;" parent="1" vertex="1">
          <mxGeometry x="400" y="40" width="320" height="200" as="geometry" />
        </mxCell>
        <mxCell id="Z9WURSwbNC6hcUpUr-SR-2" value="&lt;b&gt;Jenkins&lt;/b&gt;" style="rounded=1;whiteSpace=wrap;html=1;" parent="1" vertex="1">
          <mxGeometry x="90" y="95" width="170" height="90" as="geometry" />
        </mxCell>
        <mxCell id="Z9WURSwbNC6hcUpUr-SR-3" value="&lt;b&gt;EKS&lt;/b&gt;" style="text;html=1;align=center;verticalAlign=middle;resizable=0;points=[];autosize=1;strokeColor=none;fillColor=none;" parent="1" vertex="1">
          <mxGeometry x="400" y="40" width="50" height="30" as="geometry" />
        </mxCell>
        <mxCell id="Z9WURSwbNC6hcUpUr-SR-4" value="&lt;b&gt;kubectl&lt;/b&gt;&lt;div&gt;&lt;b&gt;aws auth&lt;/b&gt;&lt;/div&gt;" style="ellipse;whiteSpace=wrap;html=1;" parent="1" vertex="1">
          <mxGeometry x="190" y="150" width="110" height="40" as="geometry" />
        </mxCell>
        <mxCell id="Z9WURSwbNC6hcUpUr-SR-7" value="" style="rounded=0;whiteSpace=wrap;html=1;fillColor=#dae8fc;gradientColor=#7ea6e0;strokeColor=#6c8ebf;" parent="1" vertex="1">
          <mxGeometry x="400" y="410" width="270" height="170" as="geometry" />
        </mxCell>
        <mxCell id="Z9WURSwbNC6hcUpUr-SR-17" style="edgeStyle=orthogonalEdgeStyle;rounded=0;orthogonalLoop=1;jettySize=auto;html=1;" parent="1" source="Z9WURSwbNC6hcUpUr-SR-9" target="Z9WURSwbNC6hcUpUr-SR-14" edge="1">
          <mxGeometry relative="1" as="geometry" />
        </mxCell>
        <mxCell id="Z9WURSwbNC6hcUpUr-SR-18" style="edgeStyle=orthogonalEdgeStyle;rounded=0;orthogonalLoop=1;jettySize=auto;html=1;entryX=0.25;entryY=0;entryDx=0;entryDy=0;" parent="1" source="Z9WURSwbNC6hcUpUr-SR-9" target="Z9WURSwbNC6hcUpUr-SR-15" edge="1">
          <mxGeometry relative="1" as="geometry" />
        </mxCell>
        <mxCell id="Z9WURSwbNC6hcUpUr-SR-9" value="" style="shape=image;verticalLabelPosition=bottom;labelBackgroundColor=default;verticalAlign=top;aspect=fixed;imageAspect=0;image=data:image/png,iVBORw0KGgoAAAANSUhEUgAAAIwAAACwCAYAAADdeIboAAAAAXNSR0IArs4c6QAAAARnQU1BAACxjwv8YQUAAAAJcEhZcwAADsMAAA7DAcdvqGQAAEH+SURBVHhe7b13nF11nf///Jxye5neUiYhCUkghEhf6QoIKoIgYABxhf1h3eUnqwvrIlj2u6urCz9E/K2igstqBAQFWTUGpfeekIQ0kswkmd7u3H7K5/vHOXdy55aZeydtEnjyOMzNOZ/TX+f9eX/enyZs25a8x3tUiDiUBSPH/jf2B1nubgUI54/zz9yP9xjHISUYKZ3FRoKEhCVJpSWJjE0yYwEwlLZJZ8ffstcjUBRBrUfg96oEvQp+nyCoOipShHDE9J6IDm7BSFcktpSkM1kSWZX+uMlgyiaZkSDAtHIpBUKApgpUBSwbVAGWe/emJR3B4fwVgEcTaAq0RFTqgypBj43P63EE5FqkdxsHpWBsCZYtSZqSwbhFd8xkNGVjWI4V0FWB3yuIhlXnxeoQ9egIHEGUQiCwJYwkDWwJowmLTEZi2mBYjukSQlAbUmkJq9SFVAKaQFMc8bxbOKgEY9lg2pKRpM3WwSyDcRtbOpYg4FcIBxVqAxqaNv4lmjkzkodAlBWPpjo7SwmGZRM3bMyMZGTUIp62x6xTfUhhTp2HaEBBUxzLdahzUAjGcr/y3lGTd/oMkoZE1wQBn0I4oBANqng0Bdt2JDCRGKpFAIoisG2JogiypmQkYe4WjwVhn2Bug05TWEN3s7xDlWktGFtC1nSEsrXfEYpXF9RHNWpCrkik43PsT4TrCCfTNt1DBsm0jWFKQh6FOQ0aTWENjyZQDsGsaloKRuIIZThhsaXfYCRt49UFdRGN+oiT5dh25ULZmxYnHyFACEHWsBmKmwwMW2RNSdSvML/RQ01AwaM6aQ4Vpp1gTFsympFs7c/SG7PQVEFDjUZdRENVJoijHEDyhTM4atI3ZCIltEYEc+s1Aj4d7RAxN9NKMBlT0hNz/JSUKQkHFFrqdAI+FXkAsp5qUdyydiJl0T1gEE/bhL0K7fU6TWEVr3bwi2ZaCEZKScqQbBkw2DVkoquC+nqV2qCGKkRZoagCFOFYHcuJ1U1KYfZU+G9ci1HunJUghFMyG4yZDMUsbAktUZXDGjz4dScIeLBywAVj2RBPGWzqMxhISkJ+laY6Db9n8qJGRBeEVEHWlsRMiWGPF40lXSlUKCbcUpGqOj6SJpQiMZUjJ4Nc+lxgL5626R4wSKRsmiIq85o8hD3KQVuSOqCCsWwYiFts6suSyEoaalTHqVXLW5UcmhDUewS6++ATlmQo6wTaci8tYVpInEhwNShCoAABTYWxly9wwzNVIQSkMjY9gwbxlE2NX+GwBg91QfWgFM0BE4xhOVHaLf2Ov9LW4CEaVMdC85PhVwVRXZBzC4ayNt1pk+w+uJ18ASkC1CpLPbksqm/YpG/YJOpTmNfooT6ojAUJDxYOiGAsG7pjJlt6s5gSWhs9hP0Tf26qAM390rNSYtiSiFvXI4CdSZP0Pr4VgSOWqQhHCDBMSd+ISf+ISVATzG/20Bx2Sn8HC/tdMLlsaHNflrQlaW3QCfsd018OjwIBVeBXnWyhK20zlDUxbQluTXK12c6eINws0a+pKKK6rMqwJYNxk94Bk6hXYUHTwZU97VfBSCkZiFts7DUcsdTrhAPlxSKEwCMgqgtyPrAlYVvCIGHaFbqj+w4BaIrAp6qoFQpHCDClpD+2WzQLm3TqQupBEeDbr7oeTVlsG8iSMiUt9TqRCcSiCvCrUOPZLZaM7fgqGavSssu+RboWI26YJEzX4k2ClI51aohoNNZqjKRttvZnGU077XWmO/vNwiSzks19WXpHLZrrderDWlkHtzALsiQkTZshQzJiWFVnP1Ls/i6EtJ1STzaze7vHi5337Qhpj/2uhpx/U4m1yfdpBkdMWqMa8xt1AhWEEw4k+0UwGUOyddBg54hJTUilLuLU6pbCq0BEV/DmWZVRw6YvbZKtQiiOSARqNomaSuJPDSOSQyiJERQs1EQMpA1SwwrVYAaCyHAjKV8U0x/E9vgBWbV4BKArCn5NQZski8mJpnvQIJawaK/TmVOvT+uI8D4XjC1h54jBlh4Df0ChuU5HLxNnKRRLwrQZzDpWxSq1QwmkUBDSRo8N4RvowN+7hUDfTiIjXYjBHZAYBNtwxGKbYHpA1SEUxm48jFi0lWTjLFJtC0g1zMYKhsaOWSnViiaRtunqN7BNyeGtHloj2rSt6d7nghlJ2WzozZIynBJR0KdUJJa4adOdtkhW4dxKoeAZGSC0cw2RLW8Q6liDNtzpiEO4Te/yX6B0Q8Cm+9cynPWKSrZxLrEF7yMxZwmjM4/CDEb2qWgGYiZd/QZ1QZXDmz1EfdMza9qngsmaki39BjuHTZrrderCakmxaG5JyO9mU9WKRQoFNZsitGM9teueJrLpWZREPyheyPNfymK7lVFjepBgmaDZWNE2hhadzMiiU0i0LcD2+CoWTqWiyWVNPUMGQzGLuQ06c+t1PNMwa9qngumNWWzoyeLxClrq9ZIhf01AQHNa6KtiamLxjvRTs/5J6t9chad/CwitMqHkkxMN7BaOAKSNVAwyjUcwsOxsho46AzMU3SeiSWRsdvUaqMDiFg8N4fKlyAPFPhNM2pBs6s0ykLSZ0agTKJEVCQEhVRDSHLGkbUlXymLUcOqAJkMKhUBfJ40vP0x07SoUI1u9UPKxJVjuX9ygg+2+ddPEDIQZOu5c+o+7gExtc1Wi8anKWN1UOYSA/hGTnkGDlojGvEad4DQrNe2Tq5FSMhg3GIhbRIKq256lMBX4FIE/TywDGbvigJwjlg5anvkV0dV/zBOLLFiqQBHj98m3NKqGlolT9/JvaXluBd6h7nHF9YmQbrzGqODbjAZVQn6VrhGTwYSJLPXgDiCV3XGVpLI2/XETVEE4mHuJ49GEIKA6kVxTwnDWZihbWWlIChXfQBfNz/6a0ManUWx7t1g0L4QbobEVgjXjndxKKFPcd1BRsxaRN/9M83P34R3ur1g0ppQkTWtC0UgJuuY8MyFgKG6SzlZmxfYXld1tFdi2zXDSYjAJ4YBCwFs6K/KrToAOnDhLNWJRMgmaXnqQ0MZnUCxrdzake6FlBrTOgtbZMKMdaluqE40QEz8VRUXNmkRXr6LxlQdRjN0BwMnIiWaiiLCUEParBP0q/QnJcMqaVlZmokczJbKmZDBpYQkIBEofflxWZEmGslZVzRIaVq8i8vaTqKaR57NIx7LUNoBfd7KRYACa2kDTC44wASKXNU2EiprOEH1jFfVrH0eKiX2TfCy3pn0iPLpCJKhiSuifZlam9BvdA0YzMJiQBHwKAU+xddFy1sV9J6OmTbJER7NSSKES6lhP3et/REsnxju4UkIgkp8cbBu8Kmja+PWTUaiX/Pc19ltFH41R+9qf8Q3srFg0OX9mYisjCfsV/F6F/gQksoUpDhx7VTCm5ZjQrA2RgIpeos7epwq87hc8atoMZ+2KsiIAxUhR//r/4hnuKuUWgZEqnf1YVVbslTpGIaoAFLzdW2l47ZGqHqQp7Qktas6X8XsVMqYklrEnFNj+pJr7nJSUIRlN2Xg9wo3ojr9JTTh+i+o6uiNZm5RVmbmVQiWybR2BHWtQzEzxSxUCRnqRIyPjW3D3dYPpRnCrYbInI51zqpk4oU2vEuraXKWVsSfNmvw+BU0T9MYtEpmJ0+4vJnssVZHK2sQzNgGvgq6VDtLlgldpS5J2u7ZWhiT69hPo8aEyly0gnUD0dELXDujeCTu3QW+XkzVVg6jAyoxduIpneJDoW4/nr5wUS06WLUHAq+DzCGJJi7RRPu3+pNSTnxKGJYllJKb7ZZRCU3ZX+6csm3QVvkugbyferg0oZnqCl+mIhoEex7L0907NulDCjymHECjZGN7O1XgHewu3lkUC2UmsjEcTBLwKtoRE1i45qMD+pvSbnQJpQxJLWk4n+RJFaT0vO0rbkDBlxb6LFArR7avxpOIVRHKFY1HsKv2WPUGCHhskWEW2RAVWBsDrdbKlkaRF2pw47f5gsqdfMVlTksjaeHUnOyrEowp8rrObMJ2IbjX4dqxGTY9WIJj9jAAUDT2dIdi3uapsSU6SWkoIehU8miCWtskezIKxJIxkbLYPGnQMmcQyNoYNHl2UbJuquOENU0LKrLxkBKBlRlGGdyDMVOGmA497G0o2hta7BaVCJz7HZM6vR1Pw6mKsG/Hmvix9oxMH//YlUxZMPG3zdleGzb1ZtvRm2d5vgACPR4wrHQkEupLfLleSqaInIoCaSiCm6otMFeEqvFKkgZIcQEmNFm6ZEEtKzIk+HuF8hAjoGrHYPmCyvtup1D0QmpmyYDKGTf+oRcZwitPxjI1QQSsoHUkkat6zT1uSdBXZkRQq/vgAmmXtyeVOjYleZD4SkAqKYaInRqryY+TY/8rj8yroqmNlsqZkJGUxmraxDoBi9uANCOc/tw+xogi8qoJXKz6kpoDuZlOmXbmzi+vwqukkiu0OYIfb/MCWTv5muL/39sOTZV6kFGCpYOfdp2uNhARhWhVXSOaYqLQkpTPylcwbIEBAVePj7E2qu7MC8l0VAaiKk/0Ukm/dZa6DfBVIWyINICMgoUBChbjq/E3m/R5VIK2MD+VPldxFWyqYKqQ1Z8mokFUgo4xfZ6pgV1kF4eI0wSn9VKQEFGdYz9Ip9i97JJh8VAU8WnH8QojdwjJcg1ApUqhoiSEiG19HH0xASnXK5CkDEklIJpwlkYC0CQaQFhB3hVPFuYqQOOfLKmAozlvNWpDOQCoOqSRkDDBsMB3xeIYSRHdtQsWuKltyKP7Qcvg1Fa+qVOVS7Sum3OKuN2bxakd67N+aCk21Go21HvIPqQgI64KwKsja0J0yGTImj5FIoRLs2U7jqhWEN72OmhgFI4OsaSA1cx5a22yUcBQUFTJJ2LoJtfNtxPAw6H4n4KNKCNrVfxYWjiUzhdOA3EwjozWYLfMworUEaqNYRpZsVxe+XdsQQ31OjbjuxahrYvj4M+k+6aNYgShCTn6vwhWFv0TdW47OnizDcedYli05vMXDnLr93+53LwpG0FSn0VijlxVMwoLutEl8EsFIoRLevp6mVSsIbl6NkhzFbJuBetIHEQuPxaqpR/iDCFVzzJdtQyKGOTyI2LQa7bGHIRFzxKRJCFqTNIzKw8KxUCYgTWRTK9b7P4RccBRquAbp8aLqOlLa2KkUanwEdm5FvvIEYt0boKhYoSiDx5xB99nLKxZNQFXxl/D/cuzodQQj3TGKD37BaMKxMAWC8SjOwD8+RRAzJd0pi9QEtcdSqHgHumj7/U8Jr38ZJZ3AOuEDiDM+ijJ7PgTCoJR+sLZtI5JxjF0d8Ojd6OtXI4QKKhCxJ7L6DpZ0/CETpDSwlp2KdsGVyLomCIRLxpeQErJpGOiGV5+ClfdDIokVqmHwxHPoPudybI+vcK8iJhKMIhzBDI4eeMGUvsK9iCjKnSfWp5aO0/TEQ4Q3vuGI5dQPI86/EmXh0RCKlhULgKIoiFAEfcGR6J/6R8zFS53OahaOTzMRkjyxmCRO+Sjq8s/DrPmIYKS0WHCdNK8fWudgn3EhxseuRkbrUJOj1L75FI0vP1a4R9WIXFF0GjDJU9y/SKFS9/bLRDa+ihIfhONOQTnrApS2OaBWXgIRQiAa29A+/RVoanGyrLSAgkkpxmG4PQawMZedgv/jf4uoby5MVR4hUMJRlPefjfWhS8CjoQ31E1r7IoHeHVNwgqcn00owWjpOYM0L6P27kLVNyBPPQsyYB2rxwx4aGuKNN95g9erVpNO7s8Z8RH0rfPKLIGwn60gWHwdc65JUAYEMhLEvvRY1WluYCoBUIs5br77MujVrnJJSAWoogjj2VKzjzwQjQ2DnJiLrnkeWs1AHGdNGMFKoBHdtw9vfBdk01jGnIA87omR73Of+sopPXb6cT37yk1x22WV8+fOfpaerqzCZw+JjMY442hGMLUoH+Ayn16MUksTpH8bT2FqYAsuyeP3ll/nQyadwyRVXcvGll3LlZz5Dx6YNhUlRG1pQlpyArG1EGR3G27kZfXSwMFnFWAcoSFeKvScY6U5WVEAuGIub3StlvjQpBMFta/EO9UCkBnXx0Si1DYXJ6Orq4rv/3w94+rnn2bVrF7t27eI3jzzKQyv+h9GRkcLkoHvg+A+ClXVMSalAkOFYHqHrBE77cEl/padrF7d977u8sWkTu7q62blzJ/+78s/c/O3/g2EU1HMpKnL2fOxFy8A08A72E+itvN1vPtNtkNa9JhjLBsMsXDs+wj7RzavSQh/qQ0nGsetaIVzvFIsL2Pjm63R2bHdD5gpCCJLpNL/9xY+JDQ0UJgdAO/L43aFms8AXkkDWibfYjTNQ6kr4LbZFrGsXz6z6C5brIymKgmVZbOvooLOzs3APlNoG1NnzQQj0xAC+/u1TypYkcmxqnhLf435nrwmmHLbc3UJSF85SCiWVQEmMgJEh09CMGQoXJgHAE4miaHqRFdBa5jr9kkogauohGikqr40hAaFgtcwuXQpTVIQ/gJobWiJ/k6Kg68XZJh4fROtA96MlR9GH+wtTVIXlumEHmuInMEVy8YGJwjoexRnWoxQil6XZJr6gH93rKUwCwNKjlzE7GgXDwHAXKSVXfOIT1NZEC5M7CAV8IUcv2dKikdIiXVPa0QVobG5m+ZWfQko5dt6acIgz338SbW1thcmd/NfjAb8PjCRkY4UpxpgoqwbcHpOVdSHe15R5fdVjS+crmCjbETgPZoJnA4pKOmVglMrfgGAwyH/+9KfccN2XWNreyqnHLOOHP/gBH/nEpfgDwcLku8mmHEuil37sQqh44/HC1WPUNjTwueuu52tf/gcWLVrEUUcdxVduuJHrvnoDaolSHOAOWJQB1QfaBNeGKBufUhThDG8jp8d0OntNMLhtZJJZC6XgzgxbMlnnPTsQRPrDTnPHwV7URPmXN2fuXP7xlm+x6sXXefCPK/nUpz9NtKamKJsaIz4Cw8POSymTBGmj9e0qXDuGEAqtM2fx1a9/gyeffJLHHnuMz33uc0SiZayakYWREUimkKoHqfsLU4zhc5uGlPvYUu58TNOBKQtGIsc14FGE018slSlWhuP4Omn9uoK/xBdpCo1sSyOyJoI2sAslWaLE4yKEwOvzEQqHCYZC6HqxTzOOHZsd8wegFVguAXgkCBXR10UmU76v9Nh5QyFCoRAeT+lsE8BOxjEHe0BaZKN1pJtnFybJw2lbVK7hR9aQWNOgxwB7IhhdFfg9wmkQZUu3IZWk1JApWRvcWYDxiN3dZAtJNS8kG2yEoX7ofAeS1TV3LIf55EpQPY46SnndmglSImIDKGtfKtw6Nbp3wMZ1oOhkg7WkGmcVphhHObFI2/kQcz6iaUtsCQHVQlNK77MvmbJg6oIqx7f7OKxe48gZHpbN9hLUBYm0XeT4OhbGwasIfGqxH6PYJvFZ80nXNoCiYb36PHLn9vGJpsLOLWivPr67hFTKEfAqbqMdgfqnBwq3Vo+RRencjLZlNXg9ZNtmkW6agWIX+2VCTOybxDMWyYxFXUBhYbOHBY06x8z20hT1oZQq0e1j9uiMEb/KkTN8zK33UONTCQc0MoZNokS2ZNiSjCskn6rgLXGz2WANmSNOwG5oRt38JvYLj2FX0TmsCCmxf/EDp1mlEBAtfmFjeCWgIN5ZS2zlbwq3VoVc/zryj/eBUEk3tTN65CnYSum6MJ+i4CvTDkZRBOmMTcaQRAIqs+t1FrV6mVm7/2upc5S+0ing0wU1fgXLgkzWLnJ803nZUlQXRErcsGKb9B19KqMzDwePD/WvD6O88JjTtqVabIvR+3+M2LbeKVZ7Zfk2MQIIOCNtCqETfvjnGOtfrz7wISXG1rdJ/fE+RP8uCAZJLH4fI/OPKmld2G33ypI1JAIIahaaKP4Q9zd7TTAAIY8g5BHEU8XZEkDWluSMT0BTS35Z2WAN3ef9LfG5Sxyr8MBdmCsfwB7ur6yPtG1DNoPx8/8ktPLXCOlmN4FJ9hVAxHREY1hod/wL5itPOF1tJxOOdEbdNN5Zj3H/TwisfxV0HyPzltJ1+ifKWhcnOyovmdGUyWjKQlfB7/OUL77vR9RbbrnlG4Urp44gkZWMpC18bo+9fGwY66Mk3MGEctlUDiFtspE67KZWfN3b0EeGUNa9Cj3bETUNbgOq3HHdpvTSdoZJzWYx3n4T5cffQF37CkL1uk3+nOHTJkUIUGywVIRlI155EnNwALV9folKUOl0x7UM7KF+zMcfQbvv/8ezcytS85CcewS9H72aVOOsstbFrzqja5ZCUQSxhMXIqEVzWKM5ohY9zwPBlFvclaNzyGB9V5bmOp3G2vGt7wDCmiDizns4Ykh60mbJIT9sRSO6fT3Nv/sxgc5NCDMLto019wiUZccg5i6GuhZIJTBGR1B3bIDXXkTZvtEZdlVzB3GOVCiWHBLISEhpjhizaaTPj33USahLjoa2wyBUg8yksXZuQX3nLXj1BcRQL+g+pO5hdP7RdJ3/dyRb2suKRQhBQC3vv0hgZ1+WWNxi6QwvLdHSVmp/s9cFM5K0eLs7g6kozGryFJUAcm18Q6ojml0pk/5M6WFWbUVDT8aY8dzviT77KMroiDv7eQoK28mqurtozkl06fol45NVjCndLiWuFTMNZ8CifISy+7yKwKqpY+SUj7HrxPMw/OGyYsG1LuWGYVUUQTxlsaM3S1iHw1u8RCeZU2p/UVree0DICw1BQTxpMRw3iwRjS8f5zUV+g2V8GVwn2AhE2HXcWaTaIuA33KlOQhCMOkOUBSLOb18AdB28QNRyegtMVSy4g9kEbAiYzjE9nvHnDETAHwKvz7mmoCC+aBHbz7gUy+ufUCzOpFyl7xlASkksbpHO2DSEBKHy8cH9TvmrniKqqhIKePBognjSxizR3jtrS7Juh7aoLghrxXGZHIptIjQdKSzwWk5j7ojp+CUhE4Lu74gJNXtBKPkIwCucY0Yt5zzBvCXknjdiQUiHUI3TQ3MSvIrAWyabVBRBPG0TS1r4PQqhaeLs5tjrggGI+hSawhqjSYvhhFlUErAlpE05Ns5bnVclqqll37PT9TTvUhXh+CW6snvQmUJTtrcR7rh2HvecHsU5v3teKVQszVe2RJTDsS7lr1XaktG4RTojaYlqRCaZC3N/s0+uxqcLGkMqXl2QSJUeOSljQ9pySk5eRVDjUUsG8wCsQBjpCe6ry907qDr4SrfhyaG4jq63TBYMEEtbxFIWQS80BJVpN3dS+SvfQ+pCKjNqdOJJi6F46fw8YUnilsRyY2plrDSW0LA13/QbTChHbnqdQHnBCOFEdScSi7QlsVEL05DMqVOpC5R5IAeQ8le/h2gCmoIKNT6FwZhJvMSchraEuCEZNiSDWYvURAU2XxAULa9WanphSkG69HcBgNed0aQcihAk0zbJpE1dQKE2qE8r3yVH+TvYC0QDKq21OrYFsbhVcjwTW0LKkihCwa8qRf7OGLq3ZBvfiZCqPnmUdm8hBFIrXZxRhJhw6huArGHTH7MwbWir1YlMk2J0IftUMAANQZXWqEYsYY91Ji+HTy0vGtsTdgRQKbaJPe94pC/gtHyrFGk74qxtcX5XiqaCr7iRlFqB32JazuRaIwmLGbUa9cHpKRb2h2B8umBGVCXqFQzFTBIZe8ICTa4mu0gz/ogTlKvUYJhJzNMvwTrhQojUuxOC2mWyNOkEAqUFoVrk0jMwTr4ErNId5IqQYCsqhme8YFQh8E8iFoDhuMVw3CLqV2gKq9PO0c1n4jvZS0QDKjPqdJAwNGKRKdU3KI+ApuBTCib+DuRa/Vf41as676xdC2dfAR/9Esw+wnFKbcuZJNS2dv+W7vHb5iE/8Gmsj36eHZ27qsgCJVKo2NruXguViEUCsZTFYMxEVwWHNeg0hCo954Gh/N3sZRojGrPqdRJJi75ho2RRO5+AphDIZU8CUuiY1VyuUFn/zJ9IxEeRR58Gn/k3OHU5zDkKu3GWUw9V14LdOBt7/rFw2uVwxTfg/R8hHhth7TN/BlHaJylGYisCwxtwaiUUJ2stJxbhLomsRc+QgWlK5jTqNEYmjuFMB/Z6XdJEpA3J1gGDrmGT2ohKXVRHm2SgqIxlk0ahbs2TNPzlx+ijfVBhD8IVr79D8Jpvc97HP7G771AyjtnXhTY6AALMcAOytX1seyaTYeVD92Pf+y0uXDp3/AHLYRvEWxfQefEtKA1tBMVEd+QUsQ3Dma96JG7RXq8zt2F6z1edo/QnsI/w6YJZtRoNIZXBmMVgzMC0nQZC5fCqCjUaKF4/sspi5vva2/jef3yXF555Bivj+iOBEFr7AlhyEhx5Etrs+WNiMVJJnn7iCW6/7VZOmjtj/MEmQVEUAro+qVgAMtndk5u3RFRao9Pbb8lnvwoGIORVaK/TqAsoDI6YDMbMkvVN+ShCoGiq82lO/j7GWNQQQA70cPM/38hDv17B9s2bkEbx5EN2NsO2jRt45Fe/5OZ/+WesoT5aagOFySZAoqsqwUBxKSmHcC1L1pD0DhnE4hZNIZU5Dfq0qYmuhP2aJeUzkrR4p99gMGlTE1GpC2slh5zHHZ1TbHyT2v/9Pt7BXW4ArwI0jZ++3ssNT28gZVr83RWf5NRTTyMcDtEQCWNJyeBonNhIjKeeepIHf/0A0qvzrx9cwv8zf6KOZwXYWbLtSxj51PfIlOiu64hFkDFsegZdsYRV5jYeXGLhQAoGVzTbBgwGkjahgEpNRMXvUVAKCr+KAGvnNhof/Ba+/u2gVB6P6Y4bXPzo27zZF3M+caBRtZk/sxXDttm2q4d+yzG0Asmy1jp++/GjaFCqiN3YFpl5xzL0qe9gFmg+V65LZW0GhkxGkxbNIZU5B6FYOBBZUj7RgMq8Jg8tEY1Y3GLXgMFo2hqbKjqHLUGEI057lyppifr58nHtRENBFEVB0zT6LIXnt/fwSmcf/ZazTlEUQh6dL71vFg3VnkYIpK4j8yrDclmQYUmGRk129GRJpmxm1moHrVg40ILB9WkOa9CZVadhG5K+AZOhURPDcjrH5VDVgrhMpVgmn5gf4fKlswn4fNi2PSacnFBsyyIgbS5Z3Mplc4JO++CKkW5NdWhsjcAZuTtl2AyMmHT1GwgJcxp15jV6DlqxMB0Eg1t6aq/TWdjiIaBB36BJ75ATFc6hev3OMKtT5MZlDXz+mFksa6lFSolt29i2TVBXOLG1hi8um8k33t8+pXY1UtWxvU5NtRACS0piKcdiDsRMQl6Fw1s8tNcfHEXniTigPkwpRpIWncMmvTELRRPUhVUiQRWvrlD3s/8X77Y1lTu9JVjVneWxrb30DccRwIKmCCfPqOfUGdValhwS2xsmeexHGTnnb0lkbOIJi5GEhW1CY0SlLeqEEg4Fpp1gcAN8vXGTriGTeNZxiIMBlbn33Uiw4809bxejavQOJwBoCheXaqpC2liBGkaOvZgdJ1zMYMwkm5XU+BVaanSap3ndULXs4ZPfN/h0wexanUUtHmbU6qQzNrv6DDJS23Ox4Pg1TWHvnosFHAuDQkwG6B5wfJXZ9ToLmz3MrtUOKbEwXQWTI1eKWtjiZUathu71OZc8XYyizJX/BR5dYUatI5T5TR6igUMjCypkWgsGd1y8lrDK4XUQlE5nNnDL2mMv7ABg50YpFKjZFHWpXRze7IQIDjGjMo5pL5gc+s7NKAM942e5HxsXbz+qxi48n0BJJfC+sw51sDtv/aHJwSEYIwvPr4LB3vLF3tyL3BfiKXXs3M9chK6nC157Zvf2Q5SDQjDy9WfgzZcglXJeTm4Zlyjvd6kXXC2THSP/OlQVkYyhvPYUvLOmMOUhxbQsVgOQGMEeGYTN6xCPP4rYtQ28JvjcyiXynU7XnyljfIrI7V/JrZc6rtuoawxbQBxQPDD/COzjz4T5S1DqmpyRyA8hpodgjCykEjDUjd3ThejvRnR3IIcHoXsHYnjQeXFeCQFZbBclTnNKy5rcCy4lgELy0+R+C5yAoW0V728Co8IRjiKQNfXQOgtR34Ssb0E2tqDUN0JtE3YwCpp+QIYb2xsceMEYWejthL4d2J1bsd/ZhNrbiRjo2z0ooqKComK3tSHkCMIqGOlSVbF9NSjJIUc0uewq18Ukd4eijGBKrRtDgJCgati+KEpyYHxiaSOFD2lHUXp3Ogez3VEMfQFkbSP2jLlYbbNgxhz02QuQTTNRPHsjBrT/OfCCsUwYHYZkDJlIQGIUkU07k3+mU5BJQCqOFW7A9nrQXrwfEesf30xT92DWzUEd2Dp+QvTcnY3dofsjX1DCHc6j0CfKkVuteZB1MxE9m8cHD20D2TQbeeY1iJ1bkclRFH8QvEGnu0ogiPQHsHxBCATQorUQqqlq/qfpxIEXTDks04m5GFkwMti+IAx0IX55C6Jvx+76JCnB48GeeRRKx2qwjPLmIt/S5P5dzuoU4g0i2xYitrw4vj2OnYXDlsG1tyIzKWQ2g+LxgOZx5i04SIVRjumbkaqa4zAGQhCtR/H6nEkpiorVTvMCEa7d/fLHNhV8C6JAGLnfhYcsRDp+k4jUFQxkJB3xeIOgKAh/ECVa54wbo3sOObEwrQVTCl8QNG/RG5beAHj847MK14dwxqarwogKIBAtEJszCY0VKjN5xd6o3zpIOLjuVHOHJCsQgBQe54se54dIZCDsCKkahALRxqJzIARS8xU3D/X43fTvDg4uwUCRdUGaiFAdQvMUbRKBWvAEiveZCKFAoAZkwSxrQkHmLFye9ZEI7Ar7SR0KHFyC8fqcF5ZvSaTtjjUXcNe7L1Ma4ItgadV1F0FayHC9MxJn3nohJFo47AbicueQTpQ3WJeX9tDm4BKMqrmlo/EWQ4SizovM9zukjfQGpjDPokQEQuAPj4/jKAoiXO/6UHlpUZx5q98lHFyCAadDff6wH1JCwCmlFOELoQaC5WMspRCucy0KfCUhHAsXqMlP7Zz3EAv/T0SJpzzN0fQCcUgsze8OnJiPRPh8CG0KRVtNL+nISgSWooPMa/urKoiDNGo7FQqf8vQn0uRUFeQG+7EtbF+o2MJIMIN11VkXckZFFGQ9DkL3IGoaxw00JFUNy1dmVrZDkINPMLq3wIWRaKEglh4osDISGaqZUozE1P3IYK0zdkw+QkHkd4WVzjwH1Q4ScDBT/dM8wEh/pCgWIkJ1xZNHWBZaMFy9hRECqWjuiJgFgxepquMQj/k2EqEoqN5ia3SoctAJRvh8bvbjNs9UNNCKS04gETV1U7IwQgjnPGNIpLTI6n4sPTDOF0bTXRG9O6j+aR5oPP48f0WC6sPQfSj+AKJwwgpFc2I0hVnLhAjUYNAJ+BVWD6gait8/fpBFIYr9p0OYg+5OLdU33lcRCprHizIWo3GxsxAMYWYyxYMhWinkEae7sZuCbEeAUHWI1o9fqWgIRUEE87Mkt0Tlj+SlPbQ56ASj+v0Ikevi4WYJiuLkSDkLI23Q/SA0VJ+/OLuyLcSshdC8YPx6idM8QihOm5WcJRHCaX6JKJHFvWdhpjcFzRtkfmMkKXd//aofhCjRHMJta9O+COYuAbtwnmp3MnSRN/heroGVqkGodrwlUzXwVzH40EHOwSWY/i546n6Ix5xYjG0gatpA82CgjPNFCdQ4JR7dEc44rDSZlrkwYz6YhYJxxRLJa8ogBGg+UFVnvS/iikhB9u7AWvk/TpvkdwHTXzCpBLz1Avzim3DHtbDuGcdCSMCIw9GnQiCCHggi8sbVlYGQK5QCsUgbambi8Qdg9qLyI0GUynqEgFA9cv6JYMZBqIhUHPWJe+C2v0M+9EOsDW9CKlmw76FD4VM58KSTsP1t5GP3wR1/D98+H+7+B1izEhJDzjR6RgLS/XDqlXDEyeD1YySTyLHobxbhdyxMEVYG5p3oDE4UqQXNPz5yiyArdDK6Z3d2JeXuUcFrGuGsKzBbjoRUP1gpMNMwsA3x7P+g/uRa+PeL4Z5vwKt/gaE9mHd7GjJ92vQO9ULnBmTnFsRoPxIBnlzMJYdA6B6ncnDBMmhpdyO/AvOBO1Bf+z3ClmCnYdEZcPkNyJW/RDzvTDoOwrFKH/sKnH4RWCbm9z+PNrjV9VkkqBK++GPwB+DfLgXVCcrJYBTrohvRlhzvpEvEYOtb0LEhb2TO3KMUTntk03TaG0caYdbhqLPml5yP4GBi+ggmF4iT7u8xSlgJXL9CCOjpgMfvg9WrwLKdF5/qg+X/CsedjXzsfsTjd7tZjID0MNlrfojnqBPAtpC/vg3x2sOupZFIxcb829vQZ7YjH7gd8dafQQs4JTBfAHn6pxFLToSmWe71lnt8BfeQu96DnGkkmApIxmHXO8it62Dzy4jO1ZAedfst+UBmIRNDnvxpxMeuBX8IufJ/EH/NF8wQfHMlROucl736afjvfwY9ON7CzJgHQz3wo+ug/x3H6RWakwVZBtTOhrnvw56zFHvGArTW2U6D9UOc6S2Y/l3Q8TZsWwtrnoCRnY44hAKqz51YwnZiJMEamHUkvP8CmHeUE1CTEm79O+jrcMQibSdr+vc/7s6Ctr4Fd37OEQxOsVy+/zLE+X/nlLJSCawXH0N763Ho2QSZOAi3iYNQnQChZYCqwIxlzpQ7845GnbvwkCxuT2/BTIVcNjE6DL/9Aax7cncrPSOBPOMziI9eszt7MLLwfy5xSmM5ESkgz/wM4oOXOj5UUYnp3cshIJjcKAvudDZdW5Gv/gXx0u+c0ovq3+0GaR746n+PD/vbNsZbL6Df8w+gRx2rISXYKQg1wzmfgcUnQjCy27opJYrr7xIOPsFI2ymBWKYjkEQMdm2Btc/BxpdgeIfz0lWfY0Wk6SwNh8Fnb4WahsIjgmVhvrgS7eHvglQciySdti5YKaek1LoQueB4xJwjoO2w3QJSNNcKvTsEdPAJpm8ndG6Aja/C1jdh4C0nRqLXAG7gTvU4S6AWWhZgHnk62nFnOpHackgJw/3IZ3+P2PwSDHeDkXRiPgBYYAw7jq+vCRrnI+cdhz3vWMdfeRc4vByUgkklnPhGJYQiU/vypQ1xd+SIStDePfVJB59g3uOA8p77/x5V8Z5g3qMq3hPMe1TFe4J5j6rYY6fXMAzS6TSmaWJZFqZpIoRA13V0Xcfv96NNpfdhFeSuwTAMstkshmGg6zq1tbV4K+wCIqUkk8mQSqXIZDJks1ls20ZVVXRdx+fzEQgE0HV9avM2VYhpmmPXkFsAPB4PXq937DrUiUIE+5ApCcayLGKxGN3d3XR2drJt2zb6+voYHR0lFouh6zoNDQ00NTUxb948Zs6cSXNzM5FIZK/dqJSSWCxGb28v27dvZ/OmTfT09tLV1cXAwACNjY2cc845fOADHyAcDpd9yaZpMjg4SFdXFxs3bmTz5s10dnbS1dVFJpMhGAzS0NDA7NmzWbJkCW1tbcycOZPa2lo8nr3Tp9q2bRKJxNi9bNy4ke3bt9PZ2cmOzk6EotDa2srMmTOZO3cuixcvpr29nebmZvx+f9l72xdUJRjbthkeHmb9+vU89dRT/P73v+eNN94oTDYORVE44ogjuOiiizjzzDNZsGABNTU1ezTs6MjICJs2beL555/nwQcf5M033xz7Egv5+c9/zsUXX7x73uo8enp6eOONN/jrX//Kr3/9a/r6+gqTFFFXV8dll13GWWedxTHHHENTU9MevbB4PM4777zDc889x+9+9ztefvllUqlUYbIizj77bC655BKOPfZY5syZg9+/f9rZVCyYTCbDxo0befTRR7nnnnvo7OwsTDIphx9+OJdddhnnn38+8+fPxzeus9jkSCnp6OjgD3/4A7fddhs7duwoTFLE4QsW8PgTT1Bbu7uNrmmarF27ll/+8pf88Ic/HJe+UhoaGrj88su55JJLWLx4MYFANePQOFa6p6eHv/71r9x11128/PLLhUkq4owzzuCaa67h9NNPp66ubo8+xEqoSDCpVIpnn32WO+64g1WrVhVurppzzjmH6667jhNPPLHiB21ZFmvXruWOO+7g0UcfZWRkpDBJSTweD2vWrGHmzJnOVMCZDKtWreLmm2/m7bffLkxeNYsWLeIb3/gGH/jABwiFKqseMAyD9evXc/fPf85vHnyQgYGBwiRVUVNTw5e+9CWWL1/OrFmz9qnPqN5yyy3fKFyZTyqV4vHHH+fb3/42zz77bOHmKbFlyxZ27tzJjBkzaGtrK5ld5GNZFi+88AJf+9rX+POf/0wyWXkj62OPPZarrroKv9+PYRj87ne/48orr6S/v78w6ZTo7+9n9erVtLS0MHv27Emd7Jx1+853vsMvf/WrirKfyUin0zz11FNYlsXChQuJRqP7zNJMKJhMJsOzzz7Lt771LV5//fXCzXvE9u3b6evrY968ebS1tU14g2+++SbXX389L730EnZuvqQKWLhwITfccANLlixBVVVWrlzJVVddVdUxKmFgYID169fT1tbG/PnzJ3TsN2/ezPe//30efPDBwk17zKuvvoqmaSxdupRgMLhHvlU5ymZJuSzgpptu4rHHHivcPIbH46GpqYkZM2YQCoVQVRXTNEkmk3R0dNDV1YUs2+4VrrjiCm644Qbmz59fuAmAvr4+brjhBh555JEJLUtbWxutra1Eo1F0XUdVVa666irOPfdcPB4Pmzdv5rzzzmPXrl1lr0dVVebNm0dzczNerxdVVZFSkkql6O7uZtOmTYW7jOP444/nP7//fY47/vjCTQAMDQ1x5513cvvtt5NIlO/H1NTUxKxZs6ipqRnLXjKZDIODg2zdupXR0YkrRn94++1ctnw5wQqzyGooK5iBgQG+//3vc/vttxduGqOhoYFTTjllbMllL5lMht7eXp544gn+/Oc/s27dOnbt2lW4OwChUIibbrqJq6++usgHME2Tn/3sZ9x22210dHSM25ajoaGBpUuXcs455/A3f/M3tLe34/f78Xq9YzGTVCrFddddx4oVK7DyJ+hyURSF9vZ2li1bxoUXXsixxx5LTU0NHo8H27YZGBjglVde4de//jXr169n27ZthYcA914uu/RS/vVf/5VozfihzQzD4NFHH+Xf/u3fWLt27bhtOerq6li0aBFnn302Z5xxBocddthY6Wd4eJgNGzbwpz/9iRdffJG3336beDxeeAgAFs+fx09+fjdHL1u29/0Z27Zl4ZLNZuXjjz8um5qapM/nK1rC4bBcsmSJ/Na3viW7urqK9s9ftm/fLv/93/9dHnnkkUXHyS0f/ehH5Ysvvli079tvvy3POuusovS5ZfHixfLrX/+63LZtmzRNs2j/3PLUU0/Jurq6ov19Pp8MBALy9NNPlz/72c9kPB4v2jd/GRwclD/60Y/kiSeeWHSc3HLM+94nH3rwwaJ9t2zZIj/72c8Wpc8t8+bNk9dff7188803J7wX27blc889J6+55hrZ0tJSdJzccuONN8qBgYGiffd0KSmYvr4++Y/XX190Ebll8eLF8he/+IXMZrNF+5ZahoaG5J133ikXL15cdCyfzyfr6urknXfeKZPJ5Ng+pmnK7373u7K9vb0ovc/nk4sWLZI//OEP5dDQUNH58pd0Oi2vvPJKGQqFio7h9/vlCSecIJ988smi/cot8Xhc/v6RR+QJJ5xQdDyfzyej0ai85ppr5MjIyNg+pmnK3/zmN2Xvv729Xd5yyy2yo6Oj6Hzllq1bt8ovfOELsrm5ueh4Pp9Pzp07V77xxhuTiq/apcjTtG2bXbt28fDDDxduAjcLuOyyy1i+fHnF5i4ajXLJJZewfPly6uqKx7RNJpOsX7+enp6esXVDQ0M8//zz49blc8UVV/DJT36SaHTi8eV27tzJqlWrMEs0ulJVla9+9auceuqphZvKEggEOOPMM/nyl79Ma2tr4WYymQxbtmwZV2QfGRlhzZo1bN26dVxaXB/w3HPP5YorrmDmzJmFm8vS3t7O3//933PS8cfjLRFx7urq4pVXXiGddnts7iWKBGNks2zZsoUdO3cWbsLn83Hqqafy2c9+tmKx5GhoaOC8887j+DIO4bq1a9mZF4hbt25d2cjrkiVLOP/888cF48rxxhtvlBQLwPvf/34+9rGPFa6elGAwyCmnnML5559fuAmAXbt2jStV7tixgw0bNoxLk+Pwww/nwx/+cFmnfyIWLlzIRRdeQFNTU+EmAFatWjWhcz0VigSTzmTKBrSam5s577zzaG5uLtxUEQsXLmTZsmUlg3UbNmxgx86dYyWYTW+vZ6BMrGT58uW0t7dXVGx8/vnnSwpGCMFXvvKVSWNA5WhsbOSDH/xgyWh1f38/GzZsGDtvT08P77zzTmEyAE466aSyH1ElfPDc82hpbS35LF544YUJS5ZToUgw2Wy27M01NjZy8sknF66umFAoxIIFC2hpaSncxMDgIH19fRiGM7zYjp07iZWJ5i5evJhgsLI2tG+WsTBCiD16UR6Ph1mzZjFv3rzCTSSTSbq7u8deVl9fH9u3by9MRiAQYPbs2dTX5492VR3Nzc3MnTu3pHB7enpIJpNlwwhToaRgyhUb/X4/bW1thauroq2traRgcKPKmUwG27bp6uklXuLriEaj1NbWVpQlWpbFSCxW8oGFw+FJ/Z/JCIVCHHbYYYWrwQ0JZLNOJ/14PF6yKqOhoYHW1tYpWzlcP2zRokVlP6B4PL5XA5VFgjEMg50l/Bfci5ss9D0ZkUikKN6SwzRNbNvGsixGR0fHHng+DQ0NFV9DKaHk2JOXlENV1bK1xLZtl7Rs+aiqOmFUuFK8Xm/ZSHk2m53wOVRL0VlUVaWmIOiUIxfB3RPi8fgeH6NSNE0r216k1BdfLaZp7pFTOTo6yvDw8B5bgP7+/rLNO/x+f1kxTYWiI/l8PhYvXly4Gtwso7u7u3B1VXR1de3xMaph5syZJR+YZVl0dXUVrq4YKSUDAwOsXr26cFMRoWCwZPY3OjpKT0/PHlVAZjIZNm3aVPYYoVCo5AczVYqepMfjYe7cuYWrARgcHOSVV14pXF0xyWSSzZs379GLqpajjz66pNmXUvLII48Urq6YRCLB2rVrK2oX1NrWxoIFBSN25rUxKuUQV8qmTZvo6OgomX0vXLiQQCCwbwXj9XpZtGhR4Wpwve4//vGPU24asG7dOl566aU9MuPVcsIJJ5R0kKWU3HPPPWX9tYmQUrJ161Z+9atfFW4qyaxZszjiiCMKVwPw0ksv8fTTT08pm85kMqxYsaKsaM877zzCZfzFqVIkGI/Hw/z582kpEWtJJpM8+eST3H333VW/9Fz0eE8s1FRYunQp7e3tJbOlNWvWcPvtt5c15+Xo7+/n/vvv5/nnny/cVJLW1taSxW/cSPQDDzzAiy++WLUv84f//V8eeeQRhoaGCjcBcPppp+EvEfPaE4qeoqIozJgxg49dcEHhJgC6u7v5yU9+wk9/+tOKHceuri5WrFjBQw89VPbm9hU1NTVccMEFJa2Mbdvce++93HrrrRXdi5SSnp4efvrTn7JixYrCzWUJBAIsW7aMpUuXFm4Ctx3Lf/3Xf/Hcc8+VdV7zsSyLRx55hB/ccUdZ63LcccexcNGivdZQPUfJBlS6rhMKhfjrX/5Ssgp9dHSUt99+m5GREQKBQNkW9MlkkldffZV77rmH++67r2RdSj6nn346xx9/PLqu8/DDD7N+/frCJNTV1XHRRReVjeWUYubMmfzpT38qKdZMJsOaNWvo6emhoaGBurq6oiK3lJJEIsELL7zAbbfdxm9/+9uyzTVy5EL+uRBCXV0dfX19PPfcc4VJsSyLnTt3snHjRmzbprGxkWAwWGQVLcti69at3H333fz4xz9m7VtvlfRdAP7lX/6FE044oeR72RNKCkZVVSKRCMlksuQN4opm3bp1rF+/nrVr19KxfTv9/f309vayceNGnn76aR588EFWrFjBY489VpGju68EU1tbi2VZPPHEEyXNfjqdZvXq1WzZsoXXXnuN7u5uent76e3tZcuWLTz22GPce++9PPTQQ6xcuZJYLFZ4iCIKBZPrn/XOO++UtAqGYdDR0cGGDRtYs2YNmzdvJhaL0d/fT0dHB6+99hr33Xcf9913Hw8++CBbt24t2bYH4Pzzz+faa6+loaFhrzq8TNSAyrIs1q9fz9e//nVWrlxZuHkcPq+XxqYmGhoa8Pv9ZLNZBgcH6enpqcrXufnmm/n85z9PIBDgM5/5DA899FBhEubNm8e9997LsmXLCjdNyMDAADfddBP33ntvSdHkUFWV2bNnU1tbi8/nwzRNuru72bFjx4T7FfKRj3yEO+64Y5yw4/E4Dz/8MLfeemvJjyGfuro6Zs2aNRbBjcVibNu2raTFz+d973sf3/nOdzjxxBP3unWhnIXB9WUikQhtbW10dHSUbfEGYBZ0bNu1axdDQ0Nj9UKVsq8sDK4fsWjRIrZt28bmzZsLN48hpWR4eJiuri46OzvZuXMnIyMjVUdLCy0MboGira0NTdPYsmULw8PD4/bJJ5VK0dPTQ2dnJ52dnfT29pbNfnLk2jCfdtppJeuW9gZFTm8+Pp+Pk046ieuvv76qNiPTlfnz53PzzTdz4YUXFm7abzQ0NHDJJZfw2c9+tmRsZqosXLiQL3/5y5xzzjklWwPsLSYUDO6Xedppp/H1r3+dT3/604WbqyYQCJS9IU3TxupXwuFwSZMajUZLlngqZenSpdx000380z/9U+GmqvH5fFNq6tHS0sLy5cv55xtv5KSTTircXDUf/vCH+eY3v8kFF1xQtp5ub1E2S8pH13Xa2tpYsmQJixcvxrZttmzZUphsQgKBAOeccw5f+tKXEEIUtblpbGzk4osvZunSpaiqSldXF2+99VZRcfcjH/kIZ511FpHI1Ce1amxs5IgjjuDoo49GUZSia5mMaDTKxRdfzBVXXEE6nS6ZxZXKkvIJBoPMmTuXpUuX0traSn9/f9UB0WOOOYZrr72Wq6++mhNPPHGvVwOUoiLB4Po0tbW1LF68mGXLlnHiiScyZ84cNE1jZGSkZPwgGo2ydOlSLrjgAq6++mqWL1/OySefzNy5cxkaGqKzsxPDMGhqbOTqq6/mwgsvHKv4bGtrY2RkhC1btoxFQf/mb/6Gz3/+8xx++OF7ZGVwX9jixYs56qijOPnkk5kxYwaGYZSt5woEApx88slcdNFFfO5zn+Oiiy5i7ty5vPjii6xbt64w+aSCwfVpZsyYwZFHHskxxxzDEUccQTgcZmhoqGxhYcGCBZx99tlcddVVXHXVVXzoQx+ivb29KBSwryhbSpqMbDZLf38/fX199Pb2EovFiMfjGIaBqqoEg0FqampobGyksbGRhoaGMUcs10hr7dq1jI6O0tLSwtKlS2lpaRkXe9i+fTuvvvoq27dvJxwOc/TRR3PkkUeWzdKmimma9LojP3R3dzMwMDDmkCqKQn19PY2NjTQ1NdHklgZzjustt9xSsjRXqpQ0EZZlEY/H6e7upru7m76+PgYGBsY+xGAwSG1tLS0tLTQ3N9PQ0EA4HC6K1exrpiyYfKSUWJaFYRjYto0QAk3TxvoFlSObzWJZFh6Pp2QFIW5gLZ1OjzVV2JMHlM1micVieL1ewuFw4WZw7yWdTo+VSIQQeL3ekm1wNmzYwI033lgy7HD++efzox/9aMqt6QzDIJPJjMVadF0fe04TPdN9zdSffh45gfj9foLBIIFAAI/HM+mNeTwe/H5/WbHgVoZGo9GSkc9qeOaZZ7jooou49NJLueiii7jzzjsLk4B7L36/n2g0SjQaJRKJlBQLbmznpZdeKlyNoigEAoGyreAqIRdtz11HIBBA07RJn+m+Zupv4CBi48aNfPWrX+Xxxx/nhRde4Nlnn+XWW2/lZz/7WWHSionFYrzx+uslqxvqohEWzJlTVmgHM+8Kwdx///2sX79+XPCtq6uL733ve2W7skyElJItW7bw3/feW7gJgNaZMzn62GMOuDXYF7wrBNPR0VEyrL9jxw6++MUvFq6elK6uLu6+++6SkWiA1tY2lr3vmMLVhwTvCsEsW7aspJ9k2zZ/+ctf+PsvfWnSsHuOnp4e7rjjDh544IGSVR+NjY2ccMIJUwroHQy8KwTziU98omzdSiqV4r777uODH/wgjz/+eOHmMdLpNI899hjXXnst99xzT1FAMcfixYv5+Mc/vsdxounKXilWT3eklKxYsYIvfOELZS2J4o5U2djYyOWXX86CBQvwejyMxuNs2LCBP/zhD3R0dNDf31/2GHPnzuUrX/kKn/rUp94TzMFOKpXia1/7GnfddVdJfyZHrpbe6/UihMC2bTKZDPF4vGz7E9z+Vldcfjnf/Na3JozuHuy8awSDOyjPNddcw5/+9KeqmytMhM/n4yMf+Qi33norjY2NhZsPKd4VPkyOmpoa7rrrLq644orCTVPG5/Nxzjnn8J3vfIeGhhKzvR1ivKssTI7R0VHuuusubrrppsJNVdHW1sZ1113HVVddRSQSOSTjLoW8KwWDW+rZsGED//Ef/8Fvf/vbws0TEgqFOPfcc8cGczwUI7rleNcKBjcOk0qleOutt3j44YdZuXJl2WCcruvMnz+fj3/845x77rkceeSRE3aCP1T5v64r/ozsDB5KAAAAAElFTkSuQmCC;" parent="1" vertex="1">
          <mxGeometry x="425" y="460" width="71.59" height="90" as="geometry" />
        </mxCell>
        <mxCell id="Z9WURSwbNC6hcUpUr-SR-10" value="" style="verticalLabelPosition=bottom;html=1;verticalAlign=top;align=center;strokeColor=none;fillColor=#00BEF2;shape=mxgraph.azure.github_code;pointerEvents=1;" parent="1" vertex="1">
          <mxGeometry x="270" y="290" width="70" height="70" as="geometry" />
        </mxCell>
        <mxCell id="Z9WURSwbNC6hcUpUr-SR-11" style="edgeStyle=orthogonalEdgeStyle;rounded=0;orthogonalLoop=1;jettySize=auto;html=1;entryX=0.5;entryY=1;entryDx=0;entryDy=0;entryPerimeter=0;" parent="1" source="Z9WURSwbNC6hcUpUr-SR-9" target="Z9WURSwbNC6hcUpUr-SR-10" edge="1">
          <mxGeometry relative="1" as="geometry" />
        </mxCell>
        <mxCell id="Z9WURSwbNC6hcUpUr-SR-12" style="edgeStyle=orthogonalEdgeStyle;rounded=0;orthogonalLoop=1;jettySize=auto;html=1;entryX=0.25;entryY=0.05;entryDx=0;entryDy=0;entryPerimeter=0;" parent="1" source="Z9WURSwbNC6hcUpUr-SR-10" target="Z9WURSwbNC6hcUpUr-SR-7" edge="1">
          <mxGeometry relative="1" as="geometry" />
        </mxCell>
        <mxCell id="Z9WURSwbNC6hcUpUr-SR-13" value="&lt;b&gt;EKS&lt;/b&gt;" style="text;html=1;align=center;verticalAlign=middle;resizable=0;points=[];autosize=1;strokeColor=none;fillColor=none;" parent="1" vertex="1">
          <mxGeometry x="530" y="410" width="50" height="30" as="geometry" />
        </mxCell>
        <mxCell id="Z9WURSwbNC6hcUpUr-SR-14" value="" style="rounded=0;whiteSpace=wrap;html=1;fillColor=#dae8fc;gradientColor=#7ea6e0;strokeColor=#6c8ebf;" parent="1" vertex="1">
          <mxGeometry x="100" y="640" width="190" height="140" as="geometry" />
        </mxCell>
        <mxCell id="Z9WURSwbNC6hcUpUr-SR-15" value="" style="rounded=0;whiteSpace=wrap;html=1;fillColor=#dae8fc;gradientColor=#7ea6e0;strokeColor=#6c8ebf;" parent="1" vertex="1">
          <mxGeometry x="380" y="640" width="190" height="140" as="geometry" />
        </mxCell>
        <mxCell id="Z9WURSwbNC6hcUpUr-SR-16" value="" style="rounded=0;whiteSpace=wrap;html=1;fillColor=#dae8fc;gradientColor=#7ea6e0;strokeColor=#6c8ebf;" parent="1" vertex="1">
          <mxGeometry x="630" y="640" width="190" height="140" as="geometry" />
        </mxCell>
        <mxCell id="Z9WURSwbNC6hcUpUr-SR-19" style="edgeStyle=orthogonalEdgeStyle;rounded=0;orthogonalLoop=1;jettySize=auto;html=1;entryX=0.368;entryY=0;entryDx=0;entryDy=0;entryPerimeter=0;" parent="1" source="Z9WURSwbNC6hcUpUr-SR-9" target="Z9WURSwbNC6hcUpUr-SR-16" edge="1">
          <mxGeometry relative="1" as="geometry" />
        </mxCell>
        <mxCell id="Z9WURSwbNC6hcUpUr-SR-24" style="edgeStyle=orthogonalEdgeStyle;rounded=0;orthogonalLoop=1;jettySize=auto;html=1;entryX=0;entryY=0.5;entryDx=0;entryDy=0;" parent="1" source="Z9WURSwbNC6hcUpUr-SR-20" target="Z9WURSwbNC6hcUpUr-SR-21" edge="1">
          <mxGeometry relative="1" as="geometry" />
        </mxCell>
        <mxCell id="Z9WURSwbNC6hcUpUr-SR-25" style="edgeStyle=orthogonalEdgeStyle;rounded=0;orthogonalLoop=1;jettySize=auto;html=1;entryX=0;entryY=0.5;entryDx=0;entryDy=0;" parent="1" source="Z9WURSwbNC6hcUpUr-SR-20" target="Z9WURSwbNC6hcUpUr-SR-22" edge="1">
          <mxGeometry relative="1" as="geometry" />
        </mxCell>
        <mxCell id="Z9WURSwbNC6hcUpUr-SR-26" style="edgeStyle=orthogonalEdgeStyle;rounded=0;orthogonalLoop=1;jettySize=auto;html=1;entryX=0;entryY=0.5;entryDx=0;entryDy=0;" parent="1" source="Z9WURSwbNC6hcUpUr-SR-20" target="Z9WURSwbNC6hcUpUr-SR-23" edge="1">
          <mxGeometry relative="1" as="geometry" />
        </mxCell>
        <mxCell id="Z9WURSwbNC6hcUpUr-SR-20" value="&lt;b&gt;app-of-apps&lt;/b&gt;" style="rounded=1;whiteSpace=wrap;html=1;" parent="1" vertex="1">
          <mxGeometry x="190" y="965" width="120" height="60" as="geometry" />
        </mxCell>
        <mxCell id="Z9WURSwbNC6hcUpUr-SR-30" style="edgeStyle=orthogonalEdgeStyle;rounded=0;orthogonalLoop=1;jettySize=auto;html=1;entryX=0;entryY=0.5;entryDx=0;entryDy=0;" parent="1" source="Z9WURSwbNC6hcUpUr-SR-21" target="Z9WURSwbNC6hcUpUr-SR-27" edge="1">
          <mxGeometry relative="1" as="geometry" />
        </mxCell>
        <mxCell id="Z9WURSwbNC6hcUpUr-SR-21" value="&lt;b&gt;namespaces&lt;/b&gt;" style="rounded=1;whiteSpace=wrap;html=1;" parent="1" vertex="1">
          <mxGeometry x="396.59" y="860" width="100" height="50" as="geometry" />
        </mxCell>
        <mxCell id="Z9WURSwbNC6hcUpUr-SR-29" style="edgeStyle=orthogonalEdgeStyle;rounded=0;orthogonalLoop=1;jettySize=auto;html=1;" parent="1" source="Z9WURSwbNC6hcUpUr-SR-22" target="Z9WURSwbNC6hcUpUr-SR-27" edge="1">
          <mxGeometry relative="1" as="geometry" />
        </mxCell>
        <mxCell id="Z9WURSwbNC6hcUpUr-SR-22" value="&lt;b&gt;storageclass&lt;/b&gt;" style="rounded=1;whiteSpace=wrap;html=1;" parent="1" vertex="1">
          <mxGeometry x="396.59000000000003" y="970" width="100" height="50" as="geometry" />
        </mxCell>
        <mxCell id="Z9WURSwbNC6hcUpUr-SR-31" style="edgeStyle=orthogonalEdgeStyle;rounded=0;orthogonalLoop=1;jettySize=auto;html=1;entryX=0;entryY=0.5;entryDx=0;entryDy=0;" parent="1" source="Z9WURSwbNC6hcUpUr-SR-23" target="Z9WURSwbNC6hcUpUr-SR-27" edge="1">
          <mxGeometry relative="1" as="geometry" />
        </mxCell>
        <mxCell id="Z9WURSwbNC6hcUpUr-SR-23" value="&lt;b&gt;networkpolicies&lt;/b&gt;" style="rounded=1;whiteSpace=wrap;html=1;" parent="1" vertex="1">
          <mxGeometry x="396.59000000000003" y="1090" width="100" height="50" as="geometry" />
        </mxCell>
        <mxCell id="Z9WURSwbNC6hcUpUr-SR-27" value="&lt;b&gt;EKS&lt;/b&gt;" style="rounded=0;whiteSpace=wrap;html=1;fillColor=#dae8fc;gradientColor=#7ea6e0;strokeColor=#6c8ebf;" parent="1" vertex="1">
          <mxGeometry x="600" y="925" width="190" height="140" as="geometry" />
        </mxCell>
        <mxCell id="W-mHSRUF7CWBtER-0AV3-1" value="" style="verticalLabelPosition=bottom;html=1;verticalAlign=top;align=center;strokeColor=none;fillColor=#00BEF2;shape=mxgraph.azure.github_code;pointerEvents=1;" vertex="1" parent="1">
          <mxGeometry x="140" y="-40" width="70" height="70" as="geometry" />
        </mxCell>
        <mxCell id="W-mHSRUF7CWBtER-0AV3-2" style="edgeStyle=orthogonalEdgeStyle;rounded=0;orthogonalLoop=1;jettySize=auto;html=1;entryX=0.5;entryY=1;entryDx=0;entryDy=0;entryPerimeter=0;" edge="1" parent="1" source="Z9WURSwbNC6hcUpUr-SR-2" target="W-mHSRUF7CWBtER-0AV3-1">
          <mxGeometry relative="1" as="geometry" />
        </mxCell>
        <mxCell id="W-mHSRUF7CWBtER-0AV3-3" value="push values-dev.yaml" style="text;html=1;align=center;verticalAlign=middle;resizable=0;points=[];autosize=1;strokeColor=none;fillColor=none;" vertex="1" parent="1">
          <mxGeometry x="140" y="48" width="140" height="30" as="geometry" />
        </mxCell>
        <mxCell id="W-mHSRUF7CWBtER-0AV3-4" value="" style="shape=image;verticalLabelPosition=bottom;labelBackgroundColor=default;verticalAlign=top;aspect=fixed;imageAspect=0;image=data:image/png,iVBORw0KGgoAAAANSUhEUgAAAIwAAACwCAYAAADdeIboAAAAAXNSR0IArs4c6QAAAARnQU1BAACxjwv8YQUAAAAJcEhZcwAADsMAAA7DAcdvqGQAAEH+SURBVHhe7b13nF11nf///Jxye5neUiYhCUkghEhf6QoIKoIgYABxhf1h3eUnqwvrIlj2u6urCz9E/K2igstqBAQFWTUGpfeekIQ0kswkmd7u3H7K5/vHOXdy55aZeydtEnjyOMzNOZ/TX+f9eX/enyZs25a8x3tUiDiUBSPH/jf2B1nubgUI54/zz9yP9xjHISUYKZ3FRoKEhCVJpSWJjE0yYwEwlLZJZ8ffstcjUBRBrUfg96oEvQp+nyCoOipShHDE9J6IDm7BSFcktpSkM1kSWZX+uMlgyiaZkSDAtHIpBUKApgpUBSwbVAGWe/emJR3B4fwVgEcTaAq0RFTqgypBj43P63EE5FqkdxsHpWBsCZYtSZqSwbhFd8xkNGVjWI4V0FWB3yuIhlXnxeoQ9egIHEGUQiCwJYwkDWwJowmLTEZi2mBYjukSQlAbUmkJq9SFVAKaQFMc8bxbOKgEY9lg2pKRpM3WwSyDcRtbOpYg4FcIBxVqAxqaNv4lmjkzkodAlBWPpjo7SwmGZRM3bMyMZGTUIp62x6xTfUhhTp2HaEBBUxzLdahzUAjGcr/y3lGTd/oMkoZE1wQBn0I4oBANqng0Bdt2JDCRGKpFAIoisG2JogiypmQkYe4WjwVhn2Bug05TWEN3s7xDlWktGFtC1nSEsrXfEYpXF9RHNWpCrkik43PsT4TrCCfTNt1DBsm0jWFKQh6FOQ0aTWENjyZQDsGsaloKRuIIZThhsaXfYCRt49UFdRGN+oiT5dh25ULZmxYnHyFACEHWsBmKmwwMW2RNSdSvML/RQ01AwaM6aQ4Vpp1gTFsympFs7c/SG7PQVEFDjUZdRENVJoijHEDyhTM4atI3ZCIltEYEc+s1Aj4d7RAxN9NKMBlT0hNz/JSUKQkHFFrqdAI+FXkAsp5qUdyydiJl0T1gEE/bhL0K7fU6TWEVr3bwi2ZaCEZKScqQbBkw2DVkoquC+nqV2qCGKkRZoagCFOFYHcuJ1U1KYfZU+G9ci1HunJUghFMyG4yZDMUsbAktUZXDGjz4dScIeLBywAVj2RBPGWzqMxhISkJ+laY6Db9n8qJGRBeEVEHWlsRMiWGPF40lXSlUKCbcUpGqOj6SJpQiMZUjJ4Nc+lxgL5626R4wSKRsmiIq85o8hD3KQVuSOqCCsWwYiFts6suSyEoaalTHqVXLW5UcmhDUewS6++ATlmQo6wTaci8tYVpInEhwNShCoAABTYWxly9wwzNVIQSkMjY9gwbxlE2NX+GwBg91QfWgFM0BE4xhOVHaLf2Ov9LW4CEaVMdC85PhVwVRXZBzC4ayNt1pk+w+uJ18ASkC1CpLPbksqm/YpG/YJOpTmNfooT6ojAUJDxYOiGAsG7pjJlt6s5gSWhs9hP0Tf26qAM390rNSYtiSiFvXI4CdSZP0Pr4VgSOWqQhHCDBMSd+ISf+ISVATzG/20Bx2Sn8HC/tdMLlsaHNflrQlaW3QCfsd018OjwIBVeBXnWyhK20zlDUxbQluTXK12c6eINws0a+pKKK6rMqwJYNxk94Bk6hXYUHTwZU97VfBSCkZiFts7DUcsdTrhAPlxSKEwCMgqgtyPrAlYVvCIGHaFbqj+w4BaIrAp6qoFQpHCDClpD+2WzQLm3TqQupBEeDbr7oeTVlsG8iSMiUt9TqRCcSiCvCrUOPZLZaM7fgqGavSssu+RboWI26YJEzX4k2ClI51aohoNNZqjKRttvZnGU077XWmO/vNwiSzks19WXpHLZrrderDWlkHtzALsiQkTZshQzJiWFVnP1Ls/i6EtJ1STzaze7vHi5337Qhpj/2uhpx/U4m1yfdpBkdMWqMa8xt1AhWEEw4k+0UwGUOyddBg54hJTUilLuLU6pbCq0BEV/DmWZVRw6YvbZKtQiiOSARqNomaSuJPDSOSQyiJERQs1EQMpA1SwwrVYAaCyHAjKV8U0x/E9vgBWbV4BKArCn5NQZski8mJpnvQIJawaK/TmVOvT+uI8D4XjC1h54jBlh4Df0ChuU5HLxNnKRRLwrQZzDpWxSq1QwmkUBDSRo8N4RvowN+7hUDfTiIjXYjBHZAYBNtwxGKbYHpA1SEUxm48jFi0lWTjLFJtC0g1zMYKhsaOWSnViiaRtunqN7BNyeGtHloj2rSt6d7nghlJ2WzozZIynBJR0KdUJJa4adOdtkhW4dxKoeAZGSC0cw2RLW8Q6liDNtzpiEO4Te/yX6B0Q8Cm+9cynPWKSrZxLrEF7yMxZwmjM4/CDEb2qWgGYiZd/QZ1QZXDmz1EfdMza9qngsmaki39BjuHTZrrderCakmxaG5JyO9mU9WKRQoFNZsitGM9teueJrLpWZREPyheyPNfymK7lVFjepBgmaDZWNE2hhadzMiiU0i0LcD2+CoWTqWiyWVNPUMGQzGLuQ06c+t1PNMwa9qngumNWWzoyeLxClrq9ZIhf01AQHNa6KtiamLxjvRTs/5J6t9chad/CwitMqHkkxMN7BaOAKSNVAwyjUcwsOxsho46AzMU3SeiSWRsdvUaqMDiFg8N4fKlyAPFPhNM2pBs6s0ykLSZ0agTKJEVCQEhVRDSHLGkbUlXymLUcOqAJkMKhUBfJ40vP0x07SoUI1u9UPKxJVjuX9ygg+2+ddPEDIQZOu5c+o+7gExtc1Wi8anKWN1UOYSA/hGTnkGDlojGvEad4DQrNe2Tq5FSMhg3GIhbRIKq256lMBX4FIE/TywDGbvigJwjlg5anvkV0dV/zBOLLFiqQBHj98m3NKqGlolT9/JvaXluBd6h7nHF9YmQbrzGqODbjAZVQn6VrhGTwYSJLPXgDiCV3XGVpLI2/XETVEE4mHuJ49GEIKA6kVxTwnDWZihbWWlIChXfQBfNz/6a0ManUWx7t1g0L4QbobEVgjXjndxKKFPcd1BRsxaRN/9M83P34R3ur1g0ppQkTWtC0UgJuuY8MyFgKG6SzlZmxfYXld1tFdi2zXDSYjAJ4YBCwFs6K/KrToAOnDhLNWJRMgmaXnqQ0MZnUCxrdzake6FlBrTOgtbZMKMdaluqE40QEz8VRUXNmkRXr6LxlQdRjN0BwMnIiWaiiLCUEParBP0q/QnJcMqaVlZmokczJbKmZDBpYQkIBEofflxWZEmGslZVzRIaVq8i8vaTqKaR57NIx7LUNoBfd7KRYACa2kDTC44wASKXNU2EiprOEH1jFfVrH0eKiX2TfCy3pn0iPLpCJKhiSuifZlam9BvdA0YzMJiQBHwKAU+xddFy1sV9J6OmTbJER7NSSKES6lhP3et/REsnxju4UkIgkp8cbBu8Kmja+PWTUaiX/Pc19ltFH41R+9qf8Q3srFg0OX9mYisjCfsV/F6F/gQksoUpDhx7VTCm5ZjQrA2RgIpeos7epwq87hc8atoMZ+2KsiIAxUhR//r/4hnuKuUWgZEqnf1YVVbslTpGIaoAFLzdW2l47ZGqHqQp7Qktas6X8XsVMqYklrEnFNj+pJr7nJSUIRlN2Xg9wo3ojr9JTTh+i+o6uiNZm5RVmbmVQiWybR2BHWtQzEzxSxUCRnqRIyPjW3D3dYPpRnCrYbInI51zqpk4oU2vEuraXKWVsSfNmvw+BU0T9MYtEpmJ0+4vJnssVZHK2sQzNgGvgq6VDtLlgldpS5J2u7ZWhiT69hPo8aEyly0gnUD0dELXDujeCTu3QW+XkzVVg6jAyoxduIpneJDoW4/nr5wUS06WLUHAq+DzCGJJi7RRPu3+pNSTnxKGJYllJKb7ZZRCU3ZX+6csm3QVvkugbyferg0oZnqCl+mIhoEex7L0907NulDCjymHECjZGN7O1XgHewu3lkUC2UmsjEcTBLwKtoRE1i45qMD+pvSbnQJpQxJLWk4n+RJFaT0vO0rbkDBlxb6LFArR7avxpOIVRHKFY1HsKv2WPUGCHhskWEW2RAVWBsDrdbKlkaRF2pw47f5gsqdfMVlTksjaeHUnOyrEowp8rrObMJ2IbjX4dqxGTY9WIJj9jAAUDT2dIdi3uapsSU6SWkoIehU8miCWtskezIKxJIxkbLYPGnQMmcQyNoYNHl2UbJuquOENU0LKrLxkBKBlRlGGdyDMVOGmA497G0o2hta7BaVCJz7HZM6vR1Pw6mKsG/Hmvix9oxMH//YlUxZMPG3zdleGzb1ZtvRm2d5vgACPR4wrHQkEupLfLleSqaInIoCaSiCm6otMFeEqvFKkgZIcQEmNFm6ZEEtKzIk+HuF8hAjoGrHYPmCyvtup1D0QmpmyYDKGTf+oRcZwitPxjI1QQSsoHUkkat6zT1uSdBXZkRQq/vgAmmXtyeVOjYleZD4SkAqKYaInRqryY+TY/8rj8yroqmNlsqZkJGUxmraxDoBi9uANCOc/tw+xogi8qoJXKz6kpoDuZlOmXbmzi+vwqukkiu0OYIfb/MCWTv5muL/39sOTZV6kFGCpYOfdp2uNhARhWhVXSOaYqLQkpTPylcwbIEBAVePj7E2qu7MC8l0VAaiKk/0Ukm/dZa6DfBVIWyINICMgoUBChbjq/E3m/R5VIK2MD+VPldxFWyqYKqQ1Z8mokFUgo4xfZ6pgV1kF4eI0wSn9VKQEFGdYz9Ip9i97JJh8VAU8WnH8QojdwjJcg1ApUqhoiSEiG19HH0xASnXK5CkDEklIJpwlkYC0CQaQFhB3hVPFuYqQOOfLKmAozlvNWpDOQCoOqSRkDDBsMB3xeIYSRHdtQsWuKltyKP7Qcvg1Fa+qVOVS7Sum3OKuN2bxakd67N+aCk21Go21HvIPqQgI64KwKsja0J0yGTImj5FIoRLs2U7jqhWEN72OmhgFI4OsaSA1cx5a22yUcBQUFTJJ2LoJtfNtxPAw6H4n4KNKCNrVfxYWjiUzhdOA3EwjozWYLfMworUEaqNYRpZsVxe+XdsQQ31OjbjuxahrYvj4M+k+6aNYgShCTn6vwhWFv0TdW47OnizDcedYli05vMXDnLr93+53LwpG0FSn0VijlxVMwoLutEl8EsFIoRLevp6mVSsIbl6NkhzFbJuBetIHEQuPxaqpR/iDCFVzzJdtQyKGOTyI2LQa7bGHIRFzxKRJCFqTNIzKw8KxUCYgTWRTK9b7P4RccBRquAbp8aLqOlLa2KkUanwEdm5FvvIEYt0boKhYoSiDx5xB99nLKxZNQFXxl/D/cuzodQQj3TGKD37BaMKxMAWC8SjOwD8+RRAzJd0pi9QEtcdSqHgHumj7/U8Jr38ZJZ3AOuEDiDM+ijJ7PgTCoJR+sLZtI5JxjF0d8Ojd6OtXI4QKKhCxJ7L6DpZ0/CETpDSwlp2KdsGVyLomCIRLxpeQErJpGOiGV5+ClfdDIokVqmHwxHPoPudybI+vcK8iJhKMIhzBDI4eeMGUvsK9iCjKnSfWp5aO0/TEQ4Q3vuGI5dQPI86/EmXh0RCKlhULgKIoiFAEfcGR6J/6R8zFS53OahaOTzMRkjyxmCRO+Sjq8s/DrPmIYKS0WHCdNK8fWudgn3EhxseuRkbrUJOj1L75FI0vP1a4R9WIXFF0GjDJU9y/SKFS9/bLRDa+ihIfhONOQTnrApS2OaBWXgIRQiAa29A+/RVoanGyrLSAgkkpxmG4PQawMZedgv/jf4uoby5MVR4hUMJRlPefjfWhS8CjoQ31E1r7IoHeHVNwgqcn00owWjpOYM0L6P27kLVNyBPPQsyYB2rxwx4aGuKNN95g9erVpNO7s8Z8RH0rfPKLIGwn60gWHwdc65JUAYEMhLEvvRY1WluYCoBUIs5br77MujVrnJJSAWoogjj2VKzjzwQjQ2DnJiLrnkeWs1AHGdNGMFKoBHdtw9vfBdk01jGnIA87omR73Of+sopPXb6cT37yk1x22WV8+fOfpaerqzCZw+JjMY442hGMLUoH+Ayn16MUksTpH8bT2FqYAsuyeP3ll/nQyadwyRVXcvGll3LlZz5Dx6YNhUlRG1pQlpyArG1EGR3G27kZfXSwMFnFWAcoSFeKvScY6U5WVEAuGIub3StlvjQpBMFta/EO9UCkBnXx0Si1DYXJ6Orq4rv/3w94+rnn2bVrF7t27eI3jzzKQyv+h9GRkcLkoHvg+A+ClXVMSalAkOFYHqHrBE77cEl/padrF7d977u8sWkTu7q62blzJ/+78s/c/O3/g2EU1HMpKnL2fOxFy8A08A72E+itvN1vPtNtkNa9JhjLBsMsXDs+wj7RzavSQh/qQ0nGsetaIVzvFIsL2Pjm63R2bHdD5gpCCJLpNL/9xY+JDQ0UJgdAO/L43aFms8AXkkDWibfYjTNQ6kr4LbZFrGsXz6z6C5brIymKgmVZbOvooLOzs3APlNoG1NnzQQj0xAC+/u1TypYkcmxqnhLf435nrwmmHLbc3UJSF85SCiWVQEmMgJEh09CMGQoXJgHAE4miaHqRFdBa5jr9kkogauohGikqr40hAaFgtcwuXQpTVIQ/gJobWiJ/k6Kg68XZJh4fROtA96MlR9GH+wtTVIXlumEHmuInMEVy8YGJwjoexRnWoxQil6XZJr6gH93rKUwCwNKjlzE7GgXDwHAXKSVXfOIT1NZEC5M7CAV8IUcv2dKikdIiXVPa0QVobG5m+ZWfQko5dt6acIgz338SbW1thcmd/NfjAb8PjCRkY4UpxpgoqwbcHpOVdSHe15R5fdVjS+crmCjbETgPZoJnA4pKOmVglMrfgGAwyH/+9KfccN2XWNreyqnHLOOHP/gBH/nEpfgDwcLku8mmHEuil37sQqh44/HC1WPUNjTwueuu52tf/gcWLVrEUUcdxVduuJHrvnoDaolSHOAOWJQB1QfaBNeGKBufUhThDG8jp8d0OntNMLhtZJJZC6XgzgxbMlnnPTsQRPrDTnPHwV7URPmXN2fuXP7xlm+x6sXXefCPK/nUpz9NtKamKJsaIz4Cw8POSymTBGmj9e0qXDuGEAqtM2fx1a9/gyeffJLHHnuMz33uc0SiZayakYWREUimkKoHqfsLU4zhc5uGlPvYUu58TNOBKQtGIsc14FGE018slSlWhuP4Omn9uoK/xBdpCo1sSyOyJoI2sAslWaLE4yKEwOvzEQqHCYZC6HqxTzOOHZsd8wegFVguAXgkCBXR10UmU76v9Nh5QyFCoRAeT+lsE8BOxjEHe0BaZKN1pJtnFybJw2lbVK7hR9aQWNOgxwB7IhhdFfg9wmkQZUu3IZWk1JApWRvcWYDxiN3dZAtJNS8kG2yEoX7ofAeS1TV3LIf55EpQPY46SnndmglSImIDKGtfKtw6Nbp3wMZ1oOhkg7WkGmcVphhHObFI2/kQcz6iaUtsCQHVQlNK77MvmbJg6oIqx7f7OKxe48gZHpbN9hLUBYm0XeT4OhbGwasIfGqxH6PYJvFZ80nXNoCiYb36PHLn9vGJpsLOLWivPr67hFTKEfAqbqMdgfqnBwq3Vo+RRencjLZlNXg9ZNtmkW6agWIX+2VCTOybxDMWyYxFXUBhYbOHBY06x8z20hT1oZQq0e1j9uiMEb/KkTN8zK33UONTCQc0MoZNokS2ZNiSjCskn6rgLXGz2WANmSNOwG5oRt38JvYLj2FX0TmsCCmxf/EDp1mlEBAtfmFjeCWgIN5ZS2zlbwq3VoVc/zryj/eBUEk3tTN65CnYSum6MJ+i4CvTDkZRBOmMTcaQRAIqs+t1FrV6mVm7/2upc5S+0ing0wU1fgXLgkzWLnJ803nZUlQXRErcsGKb9B19KqMzDwePD/WvD6O88JjTtqVabIvR+3+M2LbeKVZ7Zfk2MQIIOCNtCqETfvjnGOtfrz7wISXG1rdJ/fE+RP8uCAZJLH4fI/OPKmld2G33ypI1JAIIahaaKP4Q9zd7TTAAIY8g5BHEU8XZEkDWluSMT0BTS35Z2WAN3ef9LfG5Sxyr8MBdmCsfwB7ur6yPtG1DNoPx8/8ktPLXCOlmN4FJ9hVAxHREY1hod/wL5itPOF1tJxOOdEbdNN5Zj3H/TwisfxV0HyPzltJ1+ifKWhcnOyovmdGUyWjKQlfB7/OUL77vR9RbbrnlG4Urp44gkZWMpC18bo+9fGwY66Mk3MGEctlUDiFtspE67KZWfN3b0EeGUNa9Cj3bETUNbgOq3HHdpvTSdoZJzWYx3n4T5cffQF37CkL1uk3+nOHTJkUIUGywVIRlI155EnNwALV9folKUOl0x7UM7KF+zMcfQbvv/8ezcytS85CcewS9H72aVOOsstbFrzqja5ZCUQSxhMXIqEVzWKM5ohY9zwPBlFvclaNzyGB9V5bmOp3G2vGt7wDCmiDizns4Ykh60mbJIT9sRSO6fT3Nv/sxgc5NCDMLto019wiUZccg5i6GuhZIJTBGR1B3bIDXXkTZvtEZdlVzB3GOVCiWHBLISEhpjhizaaTPj33USahLjoa2wyBUg8yksXZuQX3nLXj1BcRQL+g+pO5hdP7RdJ3/dyRb2suKRQhBQC3vv0hgZ1+WWNxi6QwvLdHSVmp/s9cFM5K0eLs7g6kozGryFJUAcm18Q6ojml0pk/5M6WFWbUVDT8aY8dzviT77KMroiDv7eQoK28mqurtozkl06fol45NVjCndLiWuFTMNZ8CifISy+7yKwKqpY+SUj7HrxPMw/OGyYsG1LuWGYVUUQTxlsaM3S1iHw1u8RCeZU2p/UVree0DICw1BQTxpMRw3iwRjS8f5zUV+g2V8GVwn2AhE2HXcWaTaIuA33KlOQhCMOkOUBSLOb18AdB28QNRyegtMVSy4g9kEbAiYzjE9nvHnDETAHwKvz7mmoCC+aBHbz7gUy+ufUCzOpFyl7xlASkksbpHO2DSEBKHy8cH9TvmrniKqqhIKePBognjSxizR3jtrS7Juh7aoLghrxXGZHIptIjQdKSzwWk5j7ojp+CUhE4Lu74gJNXtBKPkIwCucY0Yt5zzBvCXknjdiQUiHUI3TQ3MSvIrAWyabVBRBPG0TS1r4PQqhaeLs5tjrggGI+hSawhqjSYvhhFlUErAlpE05Ns5bnVclqqll37PT9TTvUhXh+CW6snvQmUJTtrcR7rh2HvecHsU5v3teKVQszVe2RJTDsS7lr1XaktG4RTojaYlqRCaZC3N/s0+uxqcLGkMqXl2QSJUeOSljQ9pySk5eRVDjUUsG8wCsQBjpCe6ry907qDr4SrfhyaG4jq63TBYMEEtbxFIWQS80BJVpN3dS+SvfQ+pCKjNqdOJJi6F46fw8YUnilsRyY2plrDSW0LA13/QbTChHbnqdQHnBCOFEdScSi7QlsVEL05DMqVOpC5R5IAeQ8le/h2gCmoIKNT6FwZhJvMSchraEuCEZNiSDWYvURAU2XxAULa9WanphSkG69HcBgNed0aQcihAk0zbJpE1dQKE2qE8r3yVH+TvYC0QDKq21OrYFsbhVcjwTW0LKkihCwa8qRf7OGLq3ZBvfiZCqPnmUdm8hBFIrXZxRhJhw6huArGHTH7MwbWir1YlMk2J0IftUMAANQZXWqEYsYY91Ji+HTy0vGtsTdgRQKbaJPe94pC/gtHyrFGk74qxtcX5XiqaCr7iRlFqB32JazuRaIwmLGbUa9cHpKRb2h2B8umBGVCXqFQzFTBIZe8ICTa4mu0gz/ogTlKvUYJhJzNMvwTrhQojUuxOC2mWyNOkEAqUFoVrk0jMwTr4ErNId5IqQYCsqhme8YFQh8E8iFoDhuMVw3CLqV2gKq9PO0c1n4jvZS0QDKjPqdJAwNGKRKdU3KI+ApuBTCib+DuRa/Vf41as676xdC2dfAR/9Esw+wnFKbcuZJNS2dv+W7vHb5iE/8Gmsj36eHZ27qsgCJVKo2NruXguViEUCsZTFYMxEVwWHNeg0hCo954Gh/N3sZRojGrPqdRJJi75ho2RRO5+AphDIZU8CUuiY1VyuUFn/zJ9IxEeRR58Gn/k3OHU5zDkKu3GWUw9V14LdOBt7/rFw2uVwxTfg/R8hHhth7TN/BlHaJylGYisCwxtwaiUUJ2stJxbhLomsRc+QgWlK5jTqNEYmjuFMB/Z6XdJEpA3J1gGDrmGT2ohKXVRHm2SgqIxlk0ahbs2TNPzlx+ijfVBhD8IVr79D8Jpvc97HP7G771AyjtnXhTY6AALMcAOytX1seyaTYeVD92Pf+y0uXDp3/AHLYRvEWxfQefEtKA1tBMVEd+QUsQ3Dma96JG7RXq8zt2F6z1edo/QnsI/w6YJZtRoNIZXBmMVgzMC0nQZC5fCqCjUaKF4/sspi5vva2/jef3yXF555Bivj+iOBEFr7AlhyEhx5Etrs+WNiMVJJnn7iCW6/7VZOmjtj/MEmQVEUAro+qVgAMtndk5u3RFRao9Pbb8lnvwoGIORVaK/TqAsoDI6YDMbMkvVN+ShCoGiq82lO/j7GWNQQQA70cPM/38hDv17B9s2bkEbx5EN2NsO2jRt45Fe/5OZ/+WesoT5aagOFySZAoqsqwUBxKSmHcC1L1pD0DhnE4hZNIZU5Dfq0qYmuhP2aJeUzkrR4p99gMGlTE1GpC2slh5zHHZ1TbHyT2v/9Pt7BXW4ArwI0jZ++3ssNT28gZVr83RWf5NRTTyMcDtEQCWNJyeBonNhIjKeeepIHf/0A0qvzrx9cwv8zf6KOZwXYWbLtSxj51PfIlOiu64hFkDFsegZdsYRV5jYeXGLhQAoGVzTbBgwGkjahgEpNRMXvUVAKCr+KAGvnNhof/Ba+/u2gVB6P6Y4bXPzo27zZF3M+caBRtZk/sxXDttm2q4d+yzG0Asmy1jp++/GjaFCqiN3YFpl5xzL0qe9gFmg+V65LZW0GhkxGkxbNIZU5B6FYOBBZUj7RgMq8Jg8tEY1Y3GLXgMFo2hqbKjqHLUGEI057lyppifr58nHtRENBFEVB0zT6LIXnt/fwSmcf/ZazTlEUQh6dL71vFg3VnkYIpK4j8yrDclmQYUmGRk129GRJpmxm1moHrVg40ILB9WkOa9CZVadhG5K+AZOhURPDcjrH5VDVgrhMpVgmn5gf4fKlswn4fNi2PSacnFBsyyIgbS5Z3Mplc4JO++CKkW5NdWhsjcAZuTtl2AyMmHT1GwgJcxp15jV6DlqxMB0Eg1t6aq/TWdjiIaBB36BJ75ATFc6hev3OMKtT5MZlDXz+mFksa6lFSolt29i2TVBXOLG1hi8um8k33t8+pXY1UtWxvU5NtRACS0piKcdiDsRMQl6Fw1s8tNcfHEXniTigPkwpRpIWncMmvTELRRPUhVUiQRWvrlD3s/8X77Y1lTu9JVjVneWxrb30DccRwIKmCCfPqOfUGdValhwS2xsmeexHGTnnb0lkbOIJi5GEhW1CY0SlLeqEEg4Fpp1gcAN8vXGTriGTeNZxiIMBlbn33Uiw4809bxejavQOJwBoCheXaqpC2liBGkaOvZgdJ1zMYMwkm5XU+BVaanSap3ndULXs4ZPfN/h0wexanUUtHmbU6qQzNrv6DDJS23Ox4Pg1TWHvnosFHAuDQkwG6B5wfJXZ9ToLmz3MrtUOKbEwXQWTI1eKWtjiZUathu71OZc8XYyizJX/BR5dYUatI5T5TR6igUMjCypkWgsGd1y8lrDK4XUQlE5nNnDL2mMv7ABg50YpFKjZFHWpXRze7IQIDjGjMo5pL5gc+s7NKAM942e5HxsXbz+qxi48n0BJJfC+sw51sDtv/aHJwSEYIwvPr4LB3vLF3tyL3BfiKXXs3M9chK6nC157Zvf2Q5SDQjDy9WfgzZcglXJeTm4Zlyjvd6kXXC2THSP/OlQVkYyhvPYUvLOmMOUhxbQsVgOQGMEeGYTN6xCPP4rYtQ28JvjcyiXynU7XnyljfIrI7V/JrZc6rtuoawxbQBxQPDD/COzjz4T5S1DqmpyRyA8hpodgjCykEjDUjd3ThejvRnR3IIcHoXsHYnjQeXFeCQFZbBclTnNKy5rcCy4lgELy0+R+C5yAoW0V728Co8IRjiKQNfXQOgtR34Ssb0E2tqDUN0JtE3YwCpp+QIYb2xsceMEYWejthL4d2J1bsd/ZhNrbiRjo2z0ooqKComK3tSHkCMIqGOlSVbF9NSjJIUc0uewq18Ukd4eijGBKrRtDgJCgati+KEpyYHxiaSOFD2lHUXp3Ogez3VEMfQFkbSP2jLlYbbNgxhz02QuQTTNRPHsjBrT/OfCCsUwYHYZkDJlIQGIUkU07k3+mU5BJQCqOFW7A9nrQXrwfEesf30xT92DWzUEd2Dp+QvTcnY3dofsjX1DCHc6j0CfKkVuteZB1MxE9m8cHD20D2TQbeeY1iJ1bkclRFH8QvEGnu0ogiPQHsHxBCATQorUQqqlq/qfpxIEXTDks04m5GFkwMti+IAx0IX55C6Jvx+76JCnB48GeeRRKx2qwjPLmIt/S5P5dzuoU4g0i2xYitrw4vj2OnYXDlsG1tyIzKWQ2g+LxgOZx5i04SIVRjumbkaqa4zAGQhCtR/H6nEkpiorVTvMCEa7d/fLHNhV8C6JAGLnfhYcsRDp+k4jUFQxkJB3xeIOgKAh/ECVa54wbo3sOObEwrQVTCl8QNG/RG5beAHj847MK14dwxqarwogKIBAtEJszCY0VKjN5xd6o3zpIOLjuVHOHJCsQgBQe54se54dIZCDsCKkahALRxqJzIARS8xU3D/X43fTvDg4uwUCRdUGaiFAdQvMUbRKBWvAEiveZCKFAoAZkwSxrQkHmLFye9ZEI7Ar7SR0KHFyC8fqcF5ZvSaTtjjUXcNe7L1Ma4ItgadV1F0FayHC9MxJn3nohJFo47AbicueQTpQ3WJeX9tDm4BKMqrmlo/EWQ4SizovM9zukjfQGpjDPokQEQuAPj4/jKAoiXO/6UHlpUZx5q98lHFyCAadDff6wH1JCwCmlFOELoQaC5WMspRCucy0KfCUhHAsXqMlP7Zz3EAv/T0SJpzzN0fQCcUgsze8OnJiPRPh8CG0KRVtNL+nISgSWooPMa/urKoiDNGo7FQqf8vQn0uRUFeQG+7EtbF+o2MJIMIN11VkXckZFFGQ9DkL3IGoaxw00JFUNy1dmVrZDkINPMLq3wIWRaKEglh4osDISGaqZUozE1P3IYK0zdkw+QkHkd4WVzjwH1Q4ScDBT/dM8wEh/pCgWIkJ1xZNHWBZaMFy9hRECqWjuiJgFgxepquMQj/k2EqEoqN5ia3SoctAJRvh8bvbjNs9UNNCKS04gETV1U7IwQgjnPGNIpLTI6n4sPTDOF0bTXRG9O6j+aR5oPP48f0WC6sPQfSj+AKJwwgpFc2I0hVnLhAjUYNAJ+BVWD6gait8/fpBFIYr9p0OYg+5OLdU33lcRCprHizIWo3GxsxAMYWYyxYMhWinkEae7sZuCbEeAUHWI1o9fqWgIRUEE87Mkt0Tlj+SlPbQ56ASj+v0Ikevi4WYJiuLkSDkLI23Q/SA0VJ+/OLuyLcSshdC8YPx6idM8QihOm5WcJRHCaX6JKJHFvWdhpjcFzRtkfmMkKXd//aofhCjRHMJta9O+COYuAbtwnmp3MnSRN/heroGVqkGodrwlUzXwVzH40EHOwSWY/i546n6Ix5xYjG0gatpA82CgjPNFCdQ4JR7dEc44rDSZlrkwYz6YhYJxxRLJa8ogBGg+UFVnvS/iikhB9u7AWvk/TpvkdwHTXzCpBLz1Avzim3DHtbDuGcdCSMCIw9GnQiCCHggi8sbVlYGQK5QCsUgbambi8Qdg9qLyI0GUynqEgFA9cv6JYMZBqIhUHPWJe+C2v0M+9EOsDW9CKlmw76FD4VM58KSTsP1t5GP3wR1/D98+H+7+B1izEhJDzjR6RgLS/XDqlXDEyeD1YySTyLHobxbhdyxMEVYG5p3oDE4UqQXNPz5yiyArdDK6Z3d2JeXuUcFrGuGsKzBbjoRUP1gpMNMwsA3x7P+g/uRa+PeL4Z5vwKt/gaE9mHd7GjJ92vQO9ULnBmTnFsRoPxIBnlzMJYdA6B6ncnDBMmhpdyO/AvOBO1Bf+z3ClmCnYdEZcPkNyJW/RDzvTDoOwrFKH/sKnH4RWCbm9z+PNrjV9VkkqBK++GPwB+DfLgXVCcrJYBTrohvRlhzvpEvEYOtb0LEhb2TO3KMUTntk03TaG0caYdbhqLPml5yP4GBi+ggmF4iT7u8xSlgJXL9CCOjpgMfvg9WrwLKdF5/qg+X/CsedjXzsfsTjd7tZjID0MNlrfojnqBPAtpC/vg3x2sOupZFIxcb829vQZ7YjH7gd8dafQQs4JTBfAHn6pxFLToSmWe71lnt8BfeQu96DnGkkmApIxmHXO8it62Dzy4jO1ZAedfst+UBmIRNDnvxpxMeuBX8IufJ/EH/NF8wQfHMlROucl736afjvfwY9ON7CzJgHQz3wo+ug/x3H6RWakwVZBtTOhrnvw56zFHvGArTW2U6D9UOc6S2Y/l3Q8TZsWwtrnoCRnY44hAKqz51YwnZiJMEamHUkvP8CmHeUE1CTEm79O+jrcMQibSdr+vc/7s6Ctr4Fd37OEQxOsVy+/zLE+X/nlLJSCawXH0N763Ho2QSZOAi3iYNQnQChZYCqwIxlzpQ7845GnbvwkCxuT2/BTIVcNjE6DL/9Aax7cncrPSOBPOMziI9eszt7MLLwfy5xSmM5ESkgz/wM4oOXOj5UUYnp3cshIJjcKAvudDZdW5Gv/gXx0u+c0ovq3+0GaR746n+PD/vbNsZbL6Df8w+gRx2rISXYKQg1wzmfgcUnQjCy27opJYrr7xIOPsFI2ymBWKYjkEQMdm2Btc/BxpdgeIfz0lWfY0Wk6SwNh8Fnb4WahsIjgmVhvrgS7eHvglQciySdti5YKaek1LoQueB4xJwjoO2w3QJSNNcKvTsEdPAJpm8ndG6Aja/C1jdh4C0nRqLXAG7gTvU4S6AWWhZgHnk62nFnOpHackgJw/3IZ3+P2PwSDHeDkXRiPgBYYAw7jq+vCRrnI+cdhz3vWMdfeRc4vByUgkklnPhGJYQiU/vypQ1xd+SIStDePfVJB59g3uOA8p77/x5V8Z5g3qMq3hPMe1TFe4J5j6rYY6fXMAzS6TSmaWJZFqZpIoRA13V0Xcfv96NNpfdhFeSuwTAMstkshmGg6zq1tbV4K+wCIqUkk8mQSqXIZDJks1ls20ZVVXRdx+fzEQgE0HV9avM2VYhpmmPXkFsAPB4PXq937DrUiUIE+5ApCcayLGKxGN3d3XR2drJt2zb6+voYHR0lFouh6zoNDQ00NTUxb948Zs6cSXNzM5FIZK/dqJSSWCxGb28v27dvZ/OmTfT09tLV1cXAwACNjY2cc845fOADHyAcDpd9yaZpMjg4SFdXFxs3bmTz5s10dnbS1dVFJpMhGAzS0NDA7NmzWbJkCW1tbcycOZPa2lo8nr3Tp9q2bRKJxNi9bNy4ke3bt9PZ2cmOzk6EotDa2srMmTOZO3cuixcvpr29nebmZvx+f9l72xdUJRjbthkeHmb9+vU89dRT/P73v+eNN94oTDYORVE44ogjuOiiizjzzDNZsGABNTU1ezTs6MjICJs2beL555/nwQcf5M033xz7Egv5+c9/zsUXX7x73uo8enp6eOONN/jrX//Kr3/9a/r6+gqTFFFXV8dll13GWWedxTHHHENTU9MevbB4PM4777zDc889x+9+9ztefvllUqlUYbIizj77bC655BKOPfZY5syZg9+/f9rZVCyYTCbDxo0befTRR7nnnnvo7OwsTDIphx9+OJdddhnnn38+8+fPxzeus9jkSCnp6OjgD3/4A7fddhs7duwoTFLE4QsW8PgTT1Bbu7uNrmmarF27ll/+8pf88Ic/HJe+UhoaGrj88su55JJLWLx4MYFANePQOFa6p6eHv/71r9x11128/PLLhUkq4owzzuCaa67h9NNPp66ubo8+xEqoSDCpVIpnn32WO+64g1WrVhVurppzzjmH6667jhNPPLHiB21ZFmvXruWOO+7g0UcfZWRkpDBJSTweD2vWrGHmzJnOVMCZDKtWreLmm2/m7bffLkxeNYsWLeIb3/gGH/jABwiFKqseMAyD9evXc/fPf85vHnyQgYGBwiRVUVNTw5e+9CWWL1/OrFmz9qnPqN5yyy3fKFyZTyqV4vHHH+fb3/42zz77bOHmKbFlyxZ27tzJjBkzaGtrK5ld5GNZFi+88AJf+9rX+POf/0wyWXkj62OPPZarrroKv9+PYRj87ne/48orr6S/v78w6ZTo7+9n9erVtLS0MHv27Emd7Jx1+853vsMvf/WrirKfyUin0zz11FNYlsXChQuJRqP7zNJMKJhMJsOzzz7Lt771LV5//fXCzXvE9u3b6evrY968ebS1tU14g2+++SbXX389L730EnZuvqQKWLhwITfccANLlixBVVVWrlzJVVddVdUxKmFgYID169fT1tbG/PnzJ3TsN2/ezPe//30efPDBwk17zKuvvoqmaSxdupRgMLhHvlU5ymZJuSzgpptu4rHHHivcPIbH46GpqYkZM2YQCoVQVRXTNEkmk3R0dNDV1YUs2+4VrrjiCm644Qbmz59fuAmAvr4+brjhBh555JEJLUtbWxutra1Eo1F0XUdVVa666irOPfdcPB4Pmzdv5rzzzmPXrl1lr0dVVebNm0dzczNerxdVVZFSkkql6O7uZtOmTYW7jOP444/nP7//fY47/vjCTQAMDQ1x5513cvvtt5NIlO/H1NTUxKxZs6ipqRnLXjKZDIODg2zdupXR0YkrRn94++1ctnw5wQqzyGooK5iBgQG+//3vc/vttxduGqOhoYFTTjllbMllL5lMht7eXp544gn+/Oc/s27dOnbt2lW4OwChUIibbrqJq6++usgHME2Tn/3sZ9x22210dHSM25ajoaGBpUuXcs455/A3f/M3tLe34/f78Xq9YzGTVCrFddddx4oVK7DyJ+hyURSF9vZ2li1bxoUXXsixxx5LTU0NHo8H27YZGBjglVde4de//jXr169n27ZthYcA914uu/RS/vVf/5VozfihzQzD4NFHH+Xf/u3fWLt27bhtOerq6li0aBFnn302Z5xxBocddthY6Wd4eJgNGzbwpz/9iRdffJG3336beDxeeAgAFs+fx09+fjdHL1u29/0Z27Zl4ZLNZuXjjz8um5qapM/nK1rC4bBcsmSJ/Na3viW7urqK9s9ftm/fLv/93/9dHnnkkUXHyS0f/ehH5Ysvvli079tvvy3POuusovS5ZfHixfLrX/+63LZtmzRNs2j/3PLUU0/Jurq6ov19Pp8MBALy9NNPlz/72c9kPB4v2jd/GRwclD/60Y/kiSeeWHSc3HLM+94nH3rwwaJ9t2zZIj/72c8Wpc8t8+bNk9dff7188803J7wX27blc889J6+55hrZ0tJSdJzccuONN8qBgYGiffd0KSmYvr4++Y/XX190Ebll8eLF8he/+IXMZrNF+5ZahoaG5J133ikXL15cdCyfzyfr6urknXfeKZPJ5Ng+pmnK7373u7K9vb0ovc/nk4sWLZI//OEP5dDQUNH58pd0Oi2vvPJKGQqFio7h9/vlCSecIJ988smi/cot8Xhc/v6RR+QJJ5xQdDyfzyej0ai85ppr5MjIyNg+pmnK3/zmN2Xvv729Xd5yyy2yo6Oj6Hzllq1bt8ovfOELsrm5ueh4Pp9Pzp07V77xxhuTiq/apcjTtG2bXbt28fDDDxduAjcLuOyyy1i+fHnF5i4ajXLJJZewfPly6uqKx7RNJpOsX7+enp6esXVDQ0M8//zz49blc8UVV/DJT36SaHTi8eV27tzJqlWrMEs0ulJVla9+9auceuqphZvKEggEOOPMM/nyl79Ma2tr4WYymQxbtmwZV2QfGRlhzZo1bN26dVxaXB/w3HPP5YorrmDmzJmFm8vS3t7O3//933PS8cfjLRFx7urq4pVXXiGddnts7iWKBGNks2zZsoUdO3cWbsLn83Hqqafy2c9+tmKx5GhoaOC8887j+DIO4bq1a9mZF4hbt25d2cjrkiVLOP/888cF48rxxhtvlBQLwPvf/34+9rGPFa6elGAwyCmnnML5559fuAmAXbt2jStV7tixgw0bNoxLk+Pwww/nwx/+cFmnfyIWLlzIRRdeQFNTU+EmAFatWjWhcz0VigSTzmTKBrSam5s577zzaG5uLtxUEQsXLmTZsmUlg3UbNmxgx86dYyWYTW+vZ6BMrGT58uW0t7dXVGx8/vnnSwpGCMFXvvKVSWNA5WhsbOSDH/xgyWh1f38/GzZsGDtvT08P77zzTmEyAE466aSyH1ElfPDc82hpbS35LF544YUJS5ZToUgw2Wy27M01NjZy8sknF66umFAoxIIFC2hpaSncxMDgIH19fRiGM7zYjp07iZWJ5i5evJhgsLI2tG+WsTBCiD16UR6Ph1mzZjFv3rzCTSSTSbq7u8deVl9fH9u3by9MRiAQYPbs2dTX5492VR3Nzc3MnTu3pHB7enpIJpNlwwhToaRgyhUb/X4/bW1thauroq2traRgcKPKmUwG27bp6uklXuLriEaj1NbWVpQlWpbFSCxW8oGFw+FJ/Z/JCIVCHHbYYYWrwQ0JZLNOJ/14PF6yKqOhoYHW1tYpWzlcP2zRokVlP6B4PL5XA5VFgjEMg50l/Bfci5ss9D0ZkUikKN6SwzRNbNvGsixGR0fHHng+DQ0NFV9DKaHk2JOXlENV1bK1xLZtl7Rs+aiqOmFUuFK8Xm/ZSHk2m53wOVRL0VlUVaWmIOiUIxfB3RPi8fgeH6NSNE0r216k1BdfLaZp7pFTOTo6yvDw8B5bgP7+/rLNO/x+f1kxTYWiI/l8PhYvXly4Gtwso7u7u3B1VXR1de3xMaph5syZJR+YZVl0dXUVrq4YKSUDAwOsXr26cFMRoWCwZPY3OjpKT0/PHlVAZjIZNm3aVPYYoVCo5AczVYqepMfjYe7cuYWrARgcHOSVV14pXF0xyWSSzZs379GLqpajjz66pNmXUvLII48Urq6YRCLB2rVrK2oX1NrWxoIFBSN25rUxKuUQV8qmTZvo6OgomX0vXLiQQCCwbwXj9XpZtGhR4Wpwve4//vGPU24asG7dOl566aU9MuPVcsIJJ5R0kKWU3HPPPWX9tYmQUrJ161Z+9atfFW4qyaxZszjiiCMKVwPw0ksv8fTTT08pm85kMqxYsaKsaM877zzCZfzFqVIkGI/Hw/z582kpEWtJJpM8+eST3H333VW/9Fz0eE8s1FRYunQp7e3tJbOlNWvWcPvtt5c15+Xo7+/n/vvv5/nnny/cVJLW1taSxW/cSPQDDzzAiy++WLUv84f//V8eeeQRhoaGCjcBcPppp+EvEfPaE4qeoqIozJgxg49dcEHhJgC6u7v5yU9+wk9/+tOKHceuri5WrFjBQw89VPbm9hU1NTVccMEFJa2Mbdvce++93HrrrRXdi5SSnp4efvrTn7JixYrCzWUJBAIsW7aMpUuXFm4Ctx3Lf/3Xf/Hcc8+VdV7zsSyLRx55hB/ccUdZ63LcccexcNGivdZQPUfJBlS6rhMKhfjrX/5Ssgp9dHSUt99+m5GREQKBQNkW9MlkkldffZV77rmH++67r2RdSj6nn346xx9/PLqu8/DDD7N+/frCJNTV1XHRRReVjeWUYubMmfzpT38qKdZMJsOaNWvo6emhoaGBurq6oiK3lJJEIsELL7zAbbfdxm9/+9uyzTVy5EL+uRBCXV0dfX19PPfcc4VJsSyLnTt3snHjRmzbprGxkWAwWGQVLcti69at3H333fz4xz9m7VtvlfRdAP7lX/6FE044oeR72RNKCkZVVSKRCMlksuQN4opm3bp1rF+/nrVr19KxfTv9/f309vayceNGnn76aR588EFWrFjBY489VpGju68EU1tbi2VZPPHEEyXNfjqdZvXq1WzZsoXXXnuN7u5uent76e3tZcuWLTz22GPce++9PPTQQ6xcuZJYLFZ4iCIKBZPrn/XOO++UtAqGYdDR0cGGDRtYs2YNmzdvJhaL0d/fT0dHB6+99hr33Xcf9913Hw8++CBbt24t2bYH4Pzzz+faa6+loaFhrzq8TNSAyrIs1q9fz9e//nVWrlxZuHkcPq+XxqYmGhoa8Pv9ZLNZBgcH6enpqcrXufnmm/n85z9PIBDgM5/5DA899FBhEubNm8e9997LsmXLCjdNyMDAADfddBP33ntvSdHkUFWV2bNnU1tbi8/nwzRNuru72bFjx4T7FfKRj3yEO+64Y5yw4/E4Dz/8MLfeemvJjyGfuro6Zs2aNRbBjcVibNu2raTFz+d973sf3/nOdzjxxBP3unWhnIXB9WUikQhtbW10dHSUbfEGYBZ0bNu1axdDQ0Nj9UKVsq8sDK4fsWjRIrZt28bmzZsLN48hpWR4eJiuri46OzvZuXMnIyMjVUdLCy0MboGira0NTdPYsmULw8PD4/bJJ5VK0dPTQ2dnJ52dnfT29pbNfnLk2jCfdtppJeuW9gZFTm8+Pp+Pk046ieuvv76qNiPTlfnz53PzzTdz4YUXFm7abzQ0NHDJJZfw2c9+tmRsZqosXLiQL3/5y5xzzjklWwPsLSYUDO6Xedppp/H1r3+dT3/604WbqyYQCJS9IU3TxupXwuFwSZMajUZLlngqZenSpdx000380z/9U+GmqvH5fFNq6tHS0sLy5cv55xtv5KSTTircXDUf/vCH+eY3v8kFF1xQtp5ub1E2S8pH13Xa2tpYsmQJixcvxrZttmzZUphsQgKBAOeccw5f+tKXEEIUtblpbGzk4osvZunSpaiqSldXF2+99VZRcfcjH/kIZ511FpHI1Ce1amxs5IgjjuDoo49GUZSia5mMaDTKxRdfzBVXXEE6nS6ZxZXKkvIJBoPMmTuXpUuX0traSn9/f9UB0WOOOYZrr72Wq6++mhNPPHGvVwOUoiLB4Po0tbW1LF68mGXLlnHiiScyZ84cNE1jZGSkZPwgGo2ydOlSLrjgAq6++mqWL1/OySefzNy5cxkaGqKzsxPDMGhqbOTqq6/mwgsvHKv4bGtrY2RkhC1btoxFQf/mb/6Gz3/+8xx++OF7ZGVwX9jixYs56qijOPnkk5kxYwaGYZSt5woEApx88slcdNFFfO5zn+Oiiy5i7ty5vPjii6xbt64w+aSCwfVpZsyYwZFHHskxxxzDEUccQTgcZmhoqGxhYcGCBZx99tlcddVVXHXVVXzoQx+ivb29KBSwryhbSpqMbDZLf38/fX199Pb2EovFiMfjGIaBqqoEg0FqampobGyksbGRhoaGMUcs10hr7dq1jI6O0tLSwtKlS2lpaRkXe9i+fTuvvvoq27dvJxwOc/TRR3PkkUeWzdKmimma9LojP3R3dzMwMDDmkCqKQn19PY2NjTQ1NdHklgZzjustt9xSsjRXqpQ0EZZlEY/H6e7upru7m76+PgYGBsY+xGAwSG1tLS0tLTQ3N9PQ0EA4HC6K1exrpiyYfKSUWJaFYRjYto0QAk3TxvoFlSObzWJZFh6Pp2QFIW5gLZ1OjzVV2JMHlM1micVieL1ewuFw4WZw7yWdTo+VSIQQeL3ekm1wNmzYwI033lgy7HD++efzox/9aMqt6QzDIJPJjMVadF0fe04TPdN9zdSffh45gfj9foLBIIFAAI/HM+mNeTwe/H5/WbHgVoZGo9GSkc9qeOaZZ7jooou49NJLueiii7jzzjsLk4B7L36/n2g0SjQaJRKJlBQLbmznpZdeKlyNoigEAoGyreAqIRdtz11HIBBA07RJn+m+Zupv4CBi48aNfPWrX+Xxxx/nhRde4Nlnn+XWW2/lZz/7WWHSionFYrzx+uslqxvqohEWzJlTVmgHM+8Kwdx///2sX79+XPCtq6uL733ve2W7skyElJItW7bw3/feW7gJgNaZMzn62GMOuDXYF7wrBNPR0VEyrL9jxw6++MUvFq6elK6uLu6+++6SkWiA1tY2lr3vmMLVhwTvCsEsW7aspJ9k2zZ/+ctf+PsvfWnSsHuOnp4e7rjjDh544IGSVR+NjY2ccMIJUwroHQy8KwTziU98omzdSiqV4r777uODH/wgjz/+eOHmMdLpNI899hjXXnst99xzT1FAMcfixYv5+Mc/vsdxounKXilWT3eklKxYsYIvfOELZS2J4o5U2djYyOWXX86CBQvwejyMxuNs2LCBP/zhD3R0dNDf31/2GHPnzuUrX/kKn/rUp94TzMFOKpXia1/7GnfddVdJfyZHrpbe6/UihMC2bTKZDPF4vGz7E9z+Vldcfjnf/Na3JozuHuy8awSDOyjPNddcw5/+9KeqmytMhM/n4yMf+Qi33norjY2NhZsPKd4VPkyOmpoa7rrrLq644orCTVPG5/Nxzjnn8J3vfIeGhhKzvR1ivKssTI7R0VHuuusubrrppsJNVdHW1sZ1113HVVddRSQSOSTjLoW8KwWDW+rZsGED//Ef/8Fvf/vbws0TEgqFOPfcc8cGczwUI7rleNcKBjcOk0qleOutt3j44YdZuXJl2WCcruvMnz+fj3/845x77rkceeSRE3aCP1T5v64r/ozsDB5KAAAAAElFTkSuQmCC;" vertex="1" parent="1">
          <mxGeometry x="425" y="110" width="71.59" height="90" as="geometry" />
        </mxCell>
        <mxCell id="W-mHSRUF7CWBtER-0AV3-5" style="edgeStyle=orthogonalEdgeStyle;rounded=0;orthogonalLoop=1;jettySize=auto;html=1;entryX=1;entryY=0.5;entryDx=0;entryDy=0;entryPerimeter=0;" edge="1" parent="1" source="W-mHSRUF7CWBtER-0AV3-4" target="W-mHSRUF7CWBtER-0AV3-1">
          <mxGeometry relative="1" as="geometry">
            <Array as="points">
              <mxPoint x="450" y="-5" />
            </Array>
          </mxGeometry>
        </mxCell>
      </root>
    </mxGraphModel>
  </diagram>
</mxfile>
